<?xml version="1.0" encoding="UTF-8" standalone="no"?>
<!-- Created with Inkscape (http://www.inkscape.org/) -->

<svg
   version="1.1"
   id="svg313"
   width="691.9245"
   height="143.09435"
   viewBox="0 0 691.9245 143.09435"
   sodipodi:docname="lgog with name_blackBG.svg"
   inkscape:version="1.2 (dc2aedaf03, 2022-05-15)"
   xmlns:inkscape="http://www.inkscape.org/namespaces/inkscape"
   xmlns:sodipodi="http://sodipodi.sourceforge.net/DTD/sodipodi-0.dtd"
   xmlns="http://www.w3.org/2000/svg"
   xmlns:svg="http://www.w3.org/2000/svg">
  <defs
     id="defs317" />
  <sodipodi:namedview
     id="namedview315"
     pagecolor="#ffffff"
     bordercolor="#000000"
     borderopacity="0.25"
     inkscape:showpageshadow="2"
     inkscape:pageopacity="0.0"
     inkscape:pagecheckerboard="0"
     inkscape:deskcolor="#d1d1d1"
     showgrid="false"
     inkscape:zoom="1.8123365"
     inkscape:cx="346.23814"
     inkscape:cy="93.52568"
     inkscape:window-width="1920"
     inkscape:window-height="1002"
     inkscape:window-x="-8"
     inkscape:window-y="-8"
     inkscape:window-maximized="1"
     inkscape:current-layer="g440" />
  <g
     inkscape:groupmode="layer"
     inkscape:label="Image"
     id="g319">
    <g
       id="g440"
       transform="translate(0.55177388,1.1035452)">
      <path
         style="fill:#fefefe;stroke-width:0.90566"
         d="M 41.870808,107.09435 C 27.318319,98.252837 15.408248,90.589773 15.403982,90.065307 c -0.01417,-1.742704 7.124217,-15.73368 10.756751,-21.082825 1.968237,-2.898358 5.902259,-7.393424 8.742272,-9.989036 4.800046,-4.386972 7.95838,-6.14613 27.331781,-15.223499 7.00897,-3.28404 11.918553,-8.62235 16.932801,-18.411455 2.4239,-4.732075 4.530555,-8.750409 4.681456,-8.92963 0.315576,-0.374803 50.910837,30.377154 52.790347,32.086144 1.03885,0.944583 0.4495,2.567216 -3.58551,9.871961 -5.61182,10.159305 -12.78566,18.487937 -19.86659,23.064562 -2.7511,1.778117 -9.98316,5.413907 -16.071249,8.079535 -14.292238,6.257752 -18.108774,10.104536 -23.895575,24.084986 -2.165597,5.23191 -4.151906,9.52185 -4.414019,9.53318 -0.262114,0.0113 -12.383151,-7.21337 -26.935639,-16.05488 z m 27.685107,-1.09279 C 74.623624,95.488725 80.976286,89.360919 91.173207,85.149425 105.1616,79.371995 112.00061,75.269873 117.56974,69.316457 c 5.682,-6.074082 12.62674,-17.424386 11.35384,-18.556432 -2.84264,-2.528072 -42.371626,-25.585707 -42.614401,-24.857381 -0.166604,0.49981 -1.824137,3.504545 -3.683408,6.677188 -4.581523,7.817873 -10.7869,13.831727 -17.617807,17.074052 -3.127966,1.484706 -9.355136,4.42951 -13.838155,6.54401 -6.368881,3.004003 -9.437987,5.151702 -14.037735,9.823329 -4.94344,5.020689 -12.122275,15.758576 -13.987563,20.92218 -0.35894,0.993639 5.162819,4.82362 20.559733,14.260567 11.577759,7.09613 21.254244,12.89683 21.503301,12.89043 0.249056,-0.006 2.205823,-3.64818 4.34837,-8.09284 z M 46.476323,94.915705 31.820574,86.616637 33.231576,83.836623 C 36.4613,77.47329 43.101184,69.338155 48.021703,65.715875 50.913186,63.587286 58.267684,59.661431 64.365034,56.991753 76.41673,51.715007 82.843868,46.830485 87.561782,39.362591 c 1.403282,-2.221227 2.883006,-4.039323 3.288276,-4.040214 1.436722,-0.0032 28.697102,16.497606 28.697102,17.370414 0,1.895516 -6.72326,10.880519 -11.05768,14.777533 -2.50667,2.253708 -7.87055,5.675028 -11.91976,7.602936 -4.049199,1.927906 -10.501068,4.992408 -14.337493,6.810001 -8.146536,3.859609 -13.788817,9.098826 -17.549461,16.295774 -1.454768,2.784075 -2.848806,5.056045 -3.097863,5.048835 -0.249056,-0.007 -7.047917,-3.747682 -15.10858,-8.312165 z M 81.795385,75.962303 c 4.173001,-2.14923 6.053668,-4.646289 6.053668,-8.03777 0,-5.473578 -5.087095,-9.058675 -12.846121,-9.053219 -5.840509,0.0041 -9.899096,2.213697 -11.59747,6.313935 -2.58821,6.248493 2.82238,11.795889 11.504988,11.795889 2.698706,0 5.796927,-0.458476 6.884935,-1.018835 z M 388.30187,105.33163 c -2.28303,-0.36239 -2.49057,-0.72991 -2.49057,-4.41064 v -4.015323 h 3.62265 c 3.82061,0 7.24528,-2.374913 7.24528,-5.024404 0,-0.770971 -3.0996,-9.838894 -6.88798,-20.150945 -3.78839,-10.31205 -7.0963,-19.46239 -7.35091,-20.334088 -0.405,-1.386536 0.22697,-1.584906 5.04912,-1.584906 h 5.51204 l 4.36923,13.644666 c 2.40307,7.504566 4.75281,13.64826 5.22165,13.652652 0.46883,0.0044 2.8067,-6.135706 5.19526,-13.644665 l 4.34285,-13.652653 h 5.50334 c 4.87851,0 5.43151,0.179945 4.87069,1.584906 -0.34795,0.871698 -4.4423,11.97736 -9.09854,24.679247 -7.3734,20.114103 -8.88032,23.474176 -11.67736,26.037733 -1.76631,1.61887 -4.13444,2.94896 -5.2625,2.95576 -1.12807,0.007 -2.86614,0.15763 -3.86236,0.33518 -0.99623,0.17755 -2.93208,0.14491 -4.30189,-0.0725 z M 260.22013,91.395756 c -8.43284,-1.58765 -13.886,-7.074434 -15.6959,-15.792681 -2.87666,-13.856795 4.83121,-25.449089 17.59527,-26.462498 10.44343,-0.829162 17.124,2.682389 21.01993,11.048833 2.68485,5.765684 2.88631,14.616405 0.45454,19.969307 -3.78568,8.333177 -13.63845,13.069924 -23.37384,11.237039 z M 271.82639,80.75523 c 4.1417,-4.634947 4.30276,-15.054503 0.32029,-20.720029 -2.65901,-3.782765 -9.74501,-4.448278 -13.47924,-1.265963 -6.13241,5.226061 -5.32222,20.918637 1.25708,24.347986 3.58138,1.866732 9.10221,0.771092 11.90187,-2.361994 z m 83.19246,10.591648 c -9.3348,-1.741955 -15.69472,-9.860068 -15.74849,-20.102166 -0.0362,-6.897339 1.49916,-11.557018 5.19509,-15.766444 7.70441,-8.77484 21.98391,-8.699818 29.28183,0.15384 3.08238,3.739463 4.81874,8.614634 4.81874,13.529576 v 3.291151 h -14.49056 -14.49057 v 2.309127 c 0,8.558955 10.72028,12.509842 17.17206,6.328645 1.87204,-1.793528 3.33246,-2.298148 6.65108,-2.298148 4.81891,0 5.14897,0.715143 2.23442,4.841325 -4.76931,6.751983 -11.76117,9.366893 -20.6236,7.713094 z m 12.62851,-28.177062 c -2.47655,-8.783019 -15.48436,-8.449333 -17.6523,0.45283 l -0.60653,2.490566 h 9.5444 9.54439 z M 508.07545,91.44717 c -6.95267,-1.202256 -10.54074,-5.989828 -9.74958,-13.008912 0.81295,-7.212515 4.24503,-9.580732 16.54203,-11.4144 7.70391,-1.148768 10.4151,-2.682476 10.4151,-5.891778 0,-5.962449 -11.25759,-7.63129 -14.38513,-2.132474 -1.33819,2.352772 -1.9058,2.574344 -6.60825,2.579578 l -5.14433,0.0057 0.82081,-2.862003 c 1.97871,-6.899352 8.6849,-10.206012 19.593,-9.660827 7.89184,0.394433 11.44101,1.781705 14.24622,5.568439 1.71297,2.312325 1.93579,4.140692 2.3456,19.24689 l 0.45283,16.691851 -5.20755,-0.0018 c -4.60323,-0.0012 -5.20754,-0.211577 -5.20754,-1.812704 0,-2.2609 -0.3743,-2.258402 -3.4602,0.0231 -2.89326,2.139083 -10.11328,3.454355 -14.65301,2.669347 z m 11.66596,-7.318938 c 3.50729,-1.22265 5.54159,-4.862771 5.54159,-9.915996 0,-3.214752 -0.23146,-3.675087 -1.58491,-3.152164 -0.8717,0.336791 -3.59877,0.995961 -6.06016,1.464822 -6.3548,1.210502 -8.65988,2.948014 -8.64295,6.514858 0.007,1.607385 0.31328,3.370843 0.67924,3.918795 1.47311,2.205702 5.68984,2.695635 10.06719,1.169685 z m 82.06989,7.273592 c -5.10062,-0.800794 -7.75298,-2.039716 -10.77113,-5.0312 -3.98871,-3.953463 -5.941,-9.037973 -5.9637,-15.531783 -0.0448,-12.811498 8.18315,-21.933177 19.78417,-21.933177 10.6402,0 18.06414,7.299076 19.72134,19.38963 l 0.56986,4.157541 h -15.13846 -15.13845 l 0.59439,2.943397 c 0.80794,4.000912 3.23039,7.189219 6.21927,8.185514 3.51167,1.170555 8.54636,0.0014 11.13298,-2.585157 1.74496,-1.744965 3.14374,-2.20413 6.71452,-2.20413 h 4.5104 l -1.49096,2.943396 c -0.82003,1.618868 -2.15406,3.698329 -2.96452,4.621023 -3.47527,3.956559 -11.0401,6.103056 -17.77971,5.044946 z m 11.81625,-27.779178 c -1.18895,-4.882122 -4.70443,-6.97825 -11.18025,-6.666287 -2.52585,0.12168 -6.16247,3.848253 -6.74887,6.915789 l -0.42841,2.241064 h 9.48203 9.48203 z M 173.88679,62.03774 V 33.509436 h 8.53592 8.53592 l 6.61846,19.92453 c 3.64017,10.958491 6.86423,19.92453 7.1646,19.92453 0.30037,0 3.35656,-8.966039 6.79153,-19.92453 l 6.2454,-19.92453 h 8.3937 8.39371 V 62.03774 90.566044 h -5.41696 -5.41696 l -0.24342,-20.603775 -0.24342,-20.603775 -3.52213,10.415095 c -1.93716,5.728303 -5.13806,15.000001 -7.1131,20.603775 l -3.59097,10.18868 -4.66048,-0.0064 -4.66048,-0.0064 -6.79246,-19.917482 c -3.73585,-10.954616 -7.09811,-19.917784 -7.4717,-19.918152 -0.37358,-3.66e-4 -0.67924,8.965372 -0.67924,19.923864 v 19.924529 h -5.43396 -5.43396 z m 119.54716,8.150944 v -20.37736 h 4.98113 c 4.93082,0 4.98113,0.02744 4.98113,2.716982 0,3.064584 1.29435,3.563882 2.65381,1.023712 2.50962,-4.689277 13.78435,-6.203279 19.17453,-2.57481 5.21016,3.507293 5.76061,5.631157 6.09406,23.513363 l 0.29976,16.075473 h -5.50731 -5.5073 V 76.03431 c 0,-14.221206 -0.0476,-14.579235 -2.22299,-16.754718 -2.40082,-2.400828 -6.53393,-2.931792 -9.68681,-1.244426 -3.4135,1.826856 -4.39209,6.243421 -4.39209,19.822543 v 12.708335 h -5.43396 -5.43396 z M 429.283,62.03774 V 33.509436 h 8.08309 8.08309 l 6.61847,19.92453 c 3.64017,10.958491 6.86588,19.92453 7.16828,19.92453 0.30239,0 3.36593,-8.96354 6.80787,-19.918976 l 6.25807,-19.918977 8.37736,-0.0056 8.37735,-0.0056 V 62.03774 90.566044 h -5.41696 -5.41695 l -0.24343,-20.603775 -0.24341,-20.603775 -6.86792,20.37736 -6.86793,20.37736 h -4.90566 -4.90566 l -6.79245,-19.819694 -6.79245,-19.819695 -0.24374,20.04611 -0.24375,20.046109 h -5.41663 -5.41664 z m 119.72296,9.73585 c -3.51078,-10.33585 -6.66035,-19.505662 -6.99905,-20.37736 -0.54515,-1.403044 0.0152,-1.584906 4.88388,-1.584906 h 5.4997 l 3.13855,10.18868 c 1.7262,5.603774 3.6387,11.920756 4.24999,14.037737 0.61128,2.116982 1.38004,3.849057 1.70835,3.849057 0.32829,0 1.25522,-2.139623 2.05984,-4.754717 0.80462,-2.615095 2.74466,-8.932076 4.3112,-14.037737 l 2.84825,-9.28302 h 4.9108 c 3.02674,0 4.91081,0.389942 4.91081,1.016383 0,0.559011 -2.87864,9.728823 -6.39698,20.37736 l -6.39698,19.360977 h -6.17256 -6.17257 z m 83.14496,-1.584906 v -20.37736 h 4.98113 c 4.93081,0 4.98113,0.02744 4.98113,2.716982 0,2.859778 1.25532,3.660888 2.13684,1.363673 1.73394,-4.518542 12.54196,-6.487585 18.66254,-3.400002 5.93157,2.992232 6.78281,5.854307 7.13764,23.998594 l 0.31439,16.075473 h -5.46098 -5.46098 l -0.28737,-15.025391 c -0.27793,-14.532431 -0.35751,-15.082128 -2.42543,-16.754718 -2.98297,-2.412709 -7.60897,-2.216612 -10.71709,0.454297 l -2.54107,2.183624 -0.28873,14.571094 -0.28874,14.571094 h -5.37164 -5.37164 z"
         id="path456" />
      <path
         style="fill:#eedff3;stroke-width:0.90566"
         d="m 401.66036,102.33963 c 0.90158,-0.99623 1.843,-1.81132 2.09206,-1.81132 0.24905,0 -0.28482,0.81509 -1.1864,1.81132 -0.90157,0.99623 -1.843,1.81132 -2.09206,1.81132 -0.24905,0 0.28483,-0.81509 1.1864,-1.81132 z M 512.43394,91.758699 c 0.65377,-0.261618 1.43491,-0.229449 1.73585,0.07146 0.30095,0.300951 -0.23396,0.514995 -1.18868,0.475671 -1.05504,-0.04347 -1.26964,-0.258059 -0.54717,-0.547164 z m 94.18868,0 c 0.65377,-0.261618 1.43491,-0.229449 1.73585,0.07146 0.30094,0.300951 -0.23397,0.514995 -1.18868,0.475671 -1.05505,-0.04347 -1.26965,-0.258059 -0.54717,-0.547164 z M 69.735846,90.224108 c 0,-0.188066 0.713208,-0.901274 1.584906,-1.584906 1.436428,-1.126525 1.468461,-1.094492 0.341936,0.341937 -1.183126,1.508602 -1.926842,1.988359 -1.926842,1.242969 z M 185.14189,70.641515 c 0,-11.207548 0.13001,-15.792454 0.2889,-10.18868 0.15889,5.603774 0.15889,14.773586 0,20.37736 -0.15889,5.603774 -0.2889,1.018868 -0.2889,-10.18868 z m 243.6395,-8.603775 c 3.6e-4,-15.939623 0.1236,-22.332826 0.27385,-14.207118 0.15025,8.125709 0.14995,21.167219 -6.6e-4,28.981135 -0.15062,7.813915 -0.27355,1.165607 -0.27319,-14.774017 z M 278.03772,87.507126 c 0,-0.188065 0.71321,-0.901273 1.58491,-1.584905 1.43643,-1.126525 1.46846,-1.094492 0.34194,0.341936 -1.18313,1.508602 -1.92685,1.988359 -1.92685,1.242969 z m -20.4634,-6.224101 -1.72527,-2.037736 2.03773,1.725272 c 1.91497,1.62133 2.45003,2.3502 1.72528,2.3502 -0.17186,0 -1.08884,-0.916981 -2.03774,-2.037736 z m -192.905654,-8.150944 -1.725272,-2.037736 2.037735,1.725272 c 1.914969,1.62133 2.45003,2.3502 1.725272,2.3502 -0.171855,0 -1.088836,-0.916981 -2.037735,-2.037736 z M 378.63752,71.018873 c 0.0435,-1.055042 0.25806,-1.269645 0.54717,-0.54717 0.26162,0.653774 0.22945,1.434906 -0.0715,1.73585 -0.30094,0.300943 -0.51499,-0.233963 -0.47567,-1.18868 z M 516.96224,55.532278 c 0.65377,-0.261619 1.43491,-0.229443 1.73586,0.0715 0.30094,0.300944 -0.23397,0.514996 -1.18868,0.475671 -1.05505,-0.04345 -1.26965,-0.25806 -0.54718,-0.547171 z M 372.11087,53.660381 c -1.12652,-1.436428 -1.09449,-1.468461 0.34194,-0.341936 1.50861,1.183126 1.98836,1.926842 1.24297,1.926842 -0.18806,0 -0.90127,-0.713208 -1.58491,-1.584906 z m 160.30188,-0.90566 c -1.12652,-1.436428 -1.09449,-1.468462 0.34195,-0.341937 0.87169,0.683633 1.5849,1.39684 1.5849,1.584906 0,0.745389 -0.74372,0.265633 -1.92685,-1.242969 z M 326.82786,51.84906 c -1.12653,-1.436428 -1.09449,-1.468461 0.34194,-0.341936 1.5086,1.183126 1.98836,1.926842 1.24296,1.926842 -0.18806,0 -0.90127,-0.713207 -1.5849,-1.584906 z m 288.90565,0 c -1.12653,-1.436428 -1.0945,-1.468461 0.34194,-0.341936 0.87169,0.683632 1.5849,1.39684 1.5849,1.584906 0,0.745389 -0.74372,0.265632 -1.92684,-1.24297 z m 49.81131,0 c -1.12652,-1.436428 -1.09449,-1.468461 0.34195,-0.341936 1.5086,1.183126 1.98835,1.926842 1.24296,1.926842 -0.18806,0 -0.90127,-0.713207 -1.58491,-1.584906 z"
         id="path454" />
      <path
         style="fill:#dec1e8;stroke-width:0.90566"
         d="m 76.981129,93.735856 c 1.169882,-1.245283 2.330833,-2.264151 2.579889,-2.264151 0.249057,0 -0.504347,1.018868 -1.674229,2.264151 -1.169882,1.245283 -2.330833,2.264151 -2.579889,2.264151 -0.249057,0 0.504347,-1.018868 1.674229,-2.264151 z M 176.37735,90.81655 c 1.61887,-0.200894 4.26793,-0.200894 5.88679,0 1.61887,0.200903 0.29434,0.36528 -2.94339,0.36528 -3.23774,0 -4.56227,-0.164377 -2.9434,-0.36528 z m 25.81132,0.0063 c 1.36981,-0.207514 3.61132,-0.207514 4.98113,0 1.36981,0.207505 0.24906,0.377289 -2.49056,0.377289 -2.73963,0 -3.86038,-0.169784 -2.49057,-0.377289 z m 24,-0.0063 c 1.61887,-0.200894 4.26792,-0.200894 5.88679,0 1.61887,0.200903 0.29434,0.36528 -2.94339,0.36528 -3.23774,0 -4.56227,-0.164377 -2.9434,-0.36528 z m 69.73585,0 c 1.61886,-0.200894 4.26792,-0.200894 5.88679,0 1.61887,0.200903 0.29434,0.36528 -2.9434,0.36528 -3.23773,0 -4.56226,-0.164377 -2.94339,-0.36528 z m 27.16981,0 c 1.61886,-0.200894 4.26792,-0.200894 5.88679,0 1.61887,0.200903 0.29434,0.36528 -2.9434,0.36528 -3.23773,0 -4.56226,-0.164377 -2.94339,-0.36528 z m 108.67924,0 c 1.61887,-0.200894 4.26792,-0.200894 5.88679,0 1.61887,0.200903 0.29434,0.36528 -2.9434,0.36528 -3.23773,0 -4.56226,-0.164377 -2.94339,-0.36528 z m 22.54472,-0.04076 c -0.23655,-0.382755 1.2677,-0.564969 3.34278,-0.404921 6.09452,0.470056 6.8362,0.882974 1.78859,0.995774 -2.5857,0.05778 -4.89481,-0.208103 -5.13137,-0.590853 z m 26.36094,0.04076 c 1.61886,-0.200894 4.26792,-0.200894 5.88679,0 1.61887,0.200903 0.29434,0.36528 -2.9434,0.36528 -3.23773,0 -4.56226,-0.164377 -2.94339,-0.36528 z m 47.99999,0 c 1.61887,-0.200894 4.26793,-0.200894 5.8868,0 1.61886,0.200903 0.29434,0.36528 -2.9434,0.36528 -3.23774,0 -4.56226,-0.164377 -2.9434,-0.36528 z m 29.43396,-0.0045 c 1.86793,-0.195388 4.92453,-0.195388 6.79246,0 1.86792,0.195396 0.33962,0.355254 -3.39623,0.355254 -3.73585,0 -5.26415,-0.159858 -3.39623,-0.355254 z m 76.5283,0.0045 c 1.61887,-0.200894 4.26793,-0.200894 5.8868,0 1.61886,0.200903 0.29434,0.36528 -2.9434,0.36528 -3.23774,0 -4.56226,-0.164377 -2.9434,-0.36528 z m 27.16981,0 c 1.61887,-0.200894 4.26793,-0.200894 5.8868,0 1.61886,0.200903 0.29434,0.36528 -2.9434,0.36528 -3.23774,0 -4.56226,-0.164377 -2.9434,-0.36528 z M 524.83017,87.849063 c -0.30785,-0.498113 -0.12814,-0.90566 0.39938,-0.90566 0.52751,0 0.95911,0.407547 0.95911,0.90566 0,0.498113 -0.17972,0.90566 -0.39938,0.90566 -0.21966,0 -0.65126,-0.407547 -0.95911,-0.90566 z M 122.71698,73.358496 c 0.90157,-0.996227 1.843,-1.811321 2.09205,-1.811321 0.24906,0 -0.28482,0.815094 -1.18639,1.811321 -0.90158,0.996226 -1.843,1.811321 -2.09206,1.811321 -0.24906,0 0.28482,-0.815095 1.1864,-1.811321 z m 473.09305,-0.250211 c 0.388,-0.386673 7.19513,-0.589285 15.12695,-0.450248 l 14.42148,0.252795 -15.12694,0.450247 c -8.31982,0.247635 -14.80949,0.133878 -14.42149,-0.252794 z m -239.20627,-0.42359 c 4.10943,-0.167812 10.83396,-0.167812 14.94339,0 4.10944,0.167814 0.74717,0.305115 -7.47169,0.305115 -8.21887,0 -11.58113,-0.137301 -7.4717,-0.305115 z m -82.01212,-2.496011 c 0.0185,-1.494339 0.22144,-1.996017 0.45106,-1.114839 0.22962,0.881178 0.21452,2.10382 -0.0336,2.716982 -0.24805,0.613161 -0.43592,-0.107803 -0.41746,-1.602143 z m 226.91777,-8.353265 c 1.61887,-0.200899 4.26793,-0.200899 5.8868,0 1.61886,0.2009 0.29434,0.365273 -2.9434,0.365273 -3.23774,0 -4.56226,-0.164373 -2.9434,-0.365273 z m -197.9775,-9.533528 c 0.12733,-2.761756 0.15907,-2.788753 0.51447,-0.437475 0.22845,1.511437 0.76926,2.264587 1.36273,1.897803 0.58763,-0.363176 0.72367,-0.186968 0.33774,0.437476 -1.23078,1.991436 -2.35003,1.032437 -2.21494,-1.897804 z M 69.735846,38.601462 c 0,-0.188065 0.713208,-0.901273 1.584906,-1.584905 1.436428,-1.126525 1.468461,-1.094492 0.341936,0.341936 -1.183126,1.508602 -1.926842,1.988359 -1.926842,1.242969 z"
         id="path452" />
      <path
         style="fill:#cfa2dd;stroke-width:0.90566"
         d="m 385.2697,104.69902 c -0.26662,-0.69479 -0.34558,-2.83441 -0.17548,-4.754717 0.28654,-3.234802 0.34091,-3.141899 0.7396,1.263817 0.43923,4.85375 0.29688,5.73463 -0.56412,3.4909 z m 3.08877,-8.412018 c 0.65377,-0.261618 1.43491,-0.229449 1.73586,0.07146 0.30094,0.300951 -0.23397,0.514995 -1.18868,0.475671 -1.05505,-0.04347 -1.26965,-0.258059 -0.54718,-0.547164 z m -29.88679,-12.67925 c 0.65377,-0.261619 1.43491,-0.229444 1.73586,0.0715 0.30094,0.300943 -0.23397,0.514995 -1.18868,0.475671 -1.05505,-0.04345 -1.26965,-0.25806 -0.54718,-0.54717 z M 285.35451,71.924534 c 0.0435,-1.055043 0.25806,-1.269646 0.54716,-0.54717 0.26162,0.653773 0.22945,1.434905 -0.0715,1.735849 -0.30095,0.300943 -0.515,-0.233963 -0.47567,-1.188679 z m -21.0715,-23.637539 c 0.65377,-0.261619 1.43491,-0.229444 1.73585,0.0715 0.30094,0.300944 -0.23397,0.514996 -1.18868,0.475671 -1.05505,-0.04345 -1.26964,-0.258059 -0.54717,-0.547171 z m 52.5283,0 c 0.65377,-0.261619 1.43491,-0.229444 1.73585,0.0715 0.30094,0.300944 -0.23397,0.514996 -1.18868,0.475671 -1.05505,-0.04345 -1.26964,-0.258059 -0.54717,-0.547171 z m 200.54716,-0.0056 c 0.8717,-0.227799 2.29811,-0.227799 3.16981,0 0.8717,0.227798 0.15849,0.414179 -1.58491,0.414179 -1.74339,0 -2.4566,-0.186381 -1.5849,-0.414179 z m 138.16981,0.0056 c 0.65376,-0.261619 1.43491,-0.229444 1.73585,0.0715 0.30094,0.300944 -0.23397,0.514996 -1.18868,0.475671 -1.05505,-0.04345 -1.26965,-0.258059 -0.54717,-0.547171 z"
         id="path450" />
      <path
         style="fill:#bf85d3;stroke-width:0.90566"
         d="m 223.17838,71.094345 c 6.8e-4,-10.958492 0.13146,-15.317036 0.29062,-9.685655 0.15915,5.631382 0.15859,14.59742 -9.1e-4,19.92453 -0.16018,5.32711 -0.2904,0.719616 -0.28971,-10.238875 z m 11.7917,-9.056605 c 3.6e-4,-15.939623 0.12359,-22.332826 0.27384,-14.207118 0.15025,8.125709 0.14995,21.167219 -6.6e-4,28.981135 -0.15061,7.813915 -0.27354,1.165607 -0.27318,-14.774017 z m 254.49056,0 c 3.6e-4,-15.939623 0.12359,-22.332826 0.27384,-14.207118 0.15025,8.125709 0.14995,21.167219 -6.6e-4,28.981135 -0.15061,7.813915 -0.27355,1.165607 -0.27318,-14.774017 z m 7.81839,18.037738 c 0.0435,-1.055043 0.25806,-1.269646 0.54716,-0.54717 0.26162,0.653773 0.22945,1.434905 -0.0714,1.735849 -0.30095,0.300943 -0.515,-0.233963 -0.47568,-1.188679 z M 368.5162,78.514229 c 0.40402,-0.402083 2.9324,-0.600108 5.61862,-0.440056 l 4.88403,0.291002 -5.61861,0.440057 c -3.09024,0.242031 -5.28806,0.11108 -4.88404,-0.291003 z m 248.46491,-0.370453 c 1.36981,-0.20751 3.61132,-0.20751 4.98113,0 1.36981,0.207508 0.24906,0.377289 -2.49057,0.377289 -2.73962,0 -3.86037,-0.169781 -2.49056,-0.377289 z m 1.46938,-24.483395 c -1.12653,-1.436428 -1.09449,-1.468461 0.34194,-0.341936 0.8717,0.683632 1.5849,1.39684 1.5849,1.584905 0,0.74539 -0.74372,0.265633 -1.92684,-1.242969 z m 23.78602,-0.860464 c -0.12212,-2.869628 -0.17467,-2.901423 -5.33088,-3.224981 l -5.20754,-0.326779 5.23596,-0.171247 c 5.62962,-0.184121 6.58257,0.554695 5.82691,4.517606 -0.31016,1.626623 -0.42907,1.446454 -0.52445,-0.794599 z M 295.94074,49.154964 c 1.62779,-0.201565 4.07307,-0.197406 5.43396,0.0092 1.36089,0.206648 0.0291,0.371565 -2.95962,0.366482 -2.98868,-0.0051 -4.10213,-0.17416 -2.47434,-0.375724 z m 87.81263,0.0027 c 1.60776,-0.200071 4.46059,-0.203359 6.33963,-0.0073 1.87902,0.196053 0.56359,0.359748 -2.9232,0.363766 -3.4868,0.004 -5.02419,-0.156389 -3.41643,-0.356461 z m 30.81265,-0.0015 c 1.61887,-0.2009 4.26793,-0.2009 5.88679,0 1.61887,0.200899 0.29434,0.365272 -2.94339,0.365272 -3.23774,0 -4.56227,-0.164373 -2.9434,-0.365272 z m 129.50943,0 c 1.61887,-0.2009 4.26792,-0.2009 5.88679,0 1.61887,0.200899 0.29434,0.365272 -2.94339,0.365272 -3.23774,0 -4.56227,-0.164373 -2.9434,-0.365272 z m 28.98113,0 c 1.61887,-0.2009 4.26792,-0.2009 5.88679,0 1.61887,0.200899 0.29434,0.365272 -2.94339,0.365272 -3.23774,0 -4.56227,-0.164373 -2.9434,-0.365272 z m -58.81132,-0.869179 c 0.65377,-0.261619 1.43491,-0.229444 1.73585,0.0715 0.30095,0.300944 -0.23396,0.514995 -1.18868,0.475671 -1.05504,-0.04345 -1.26964,-0.25806 -0.54717,-0.547171 z"
         id="path448" />
      <path
         style="fill:#af66c8;stroke-width:0.90566"
         d="m 331.83389,77.433968 c 9.1e-4,-7.471699 0.14155,-10.407788 0.31172,-6.524644 0.17018,3.883144 0.16914,9.996352 -0.003,13.584906 -0.17104,3.588555 -0.31027,0.411437 -0.30901,-7.060262 z M 477.09155,71.45949 c -0.14375,-10.508605 0.0443,-19.294922 0.41786,-19.525149 0.37359,-0.230227 0.67925,8.367723 0.67925,19.106554 0,10.738832 -0.18803,19.525149 -0.41786,19.525149 -0.22982,0 -0.53548,-8.597949 -0.67925,-19.106554 z M 631.6336,70.188684 c 6.3e-4,-11.456604 0.13042,-16.018516 0.28842,-10.137582 0.15799,5.880935 0.15748,15.25452 -9e-4,20.83019 -0.15889,5.57567 -0.28816,0.763997 -0.28752,-10.692608 z m -107.11327,3.169812 c 0,-1.245283 0.20557,-1.754717 0.45681,-1.132076 0.25124,0.622642 0.25124,1.64151 0,2.264151 -0.25124,0.622642 -0.45681,0.113208 -0.45681,-1.132075 z M 254.66711,70.188684 c 0.0185,-1.494339 0.22144,-1.996017 0.45106,-1.114839 0.22962,0.881178 0.21452,2.10382 -0.0336,2.716982 -0.24804,0.613161 -0.43591,-0.107803 -0.41746,-1.602143 z m 49.70627,-1.886792 c 0.0435,-1.055043 0.25806,-1.269645 0.54716,-0.54717 0.26162,0.653774 0.22945,1.434906 -0.0715,1.735849 -0.30094,0.300943 -0.51499,-0.233963 -0.47567,-1.188679 z m 45.80127,-2.867925 c -0.23254,-0.373585 2.49436,-0.567695 6.05976,-0.431357 11.03441,0.421949 12.30988,0.814228 3.13978,0.965663 -4.8272,0.07972 -8.967,-0.160721 -9.19954,-0.534306 z m 250.0821,0.01051 c 2.63179,-0.183525 6.70726,-0.181596 9.0566,0.0043 2.34934,0.185883 0.19606,0.336039 -4.78507,0.333681 -4.98113,-0.0024 -6.90333,-0.154444 -4.27153,-0.337968 z"
         id="path446" />
      <path
         style="fill:#a048bd;stroke-width:0.90566"
         d="m 81.509431,99.280708 c 0,-0.188061 0.713207,-0.901268 1.584905,-1.584906 1.436428,-1.126524 1.468461,-1.094491 0.341937,0.341941 -1.183127,1.508604 -1.926842,1.988357 -1.926842,1.242965 z M 658.77497,78.792459 c 0,-7.222642 0.14065,-10.17736 0.31256,-6.566039 0.1719,3.611321 0.1719,9.520756 0,13.132077 -0.17191,3.611321 -0.31256,0.656604 -0.31256,-6.566038 z m -354.12735,1.35849 c 0.002,-5.977359 0.14836,-8.304785 0.32572,-5.172056 0.17736,3.132727 0.1759,8.023294 -0.004,10.867925 -0.17878,2.844631 -0.32388,0.28149 -0.3221,-5.695869 z m 365.90324,-2.716981 c 9.1e-4,-7.471699 0.14155,-10.407788 0.31172,-6.524644 0.17017,3.883144 0.16914,9.996352 -0.003,13.584906 -0.17103,3.588555 -0.31027,0.411437 -0.309,-7.060262 z M 71.547167,89.318447 c 0,-0.188066 0.713207,-0.901273 1.584905,-1.584906 1.436428,-1.126524 1.468462,-1.094491 0.341937,0.341937 -1.183127,1.508602 -1.926842,1.988359 -1.926842,1.242969 z M 372.2264,88.412787 c 0,-0.188066 0.71321,-0.901274 1.58491,-1.584906 1.43643,-1.126525 1.46846,-1.094492 0.34194,0.341937 -1.18313,1.508602 -1.92685,1.988358 -1.92685,1.242969 z M 115.01886,71.205238 c 0,-0.188065 0.71321,-0.901273 1.58491,-1.584905 1.43643,-1.126525 1.46846,-1.094492 0.34194,0.341936 -1.18313,1.508602 -1.92685,1.988359 -1.92685,1.242969 z m -73.358484,-0.90566 c 0,-0.188066 0.713207,-0.901273 1.584905,-1.584906 1.436428,-1.126525 1.468461,-1.094491 0.341937,0.341937 -1.183127,1.508602 -1.926842,1.988358 -1.926842,1.242969 z M 331.54319,62.867929 c 0.0435,-1.055042 0.25806,-1.269645 0.54716,-0.54717 0.26162,0.653774 0.22945,1.434906 -0.0715,1.73585 -0.30094,0.300943 -0.51499,-0.233963 -0.47567,-1.18868 z M 81.0566,46.188683 c 0.901573,-0.996227 1.842997,-1.811321 2.092053,-1.811321 0.249057,0 -0.28482,0.815094 -1.186392,1.811321 -0.901572,0.996226 -1.842996,1.81132 -2.092053,1.81132 -0.249057,0 0.28482,-0.815094 1.186392,-1.81132 z m -5.886792,-3.169812 c 1.169882,-1.245283 2.330833,-2.264151 2.57989,-2.264151 0.249056,0 -0.504347,1.018868 -1.674229,2.264151 -1.169883,1.245283 -2.330833,2.264151 -2.57989,2.264151 -0.249056,0 0.504347,-1.018868 1.674229,-2.264151 z"
         id="path444" />
      <path
         style="fill:#241c1c;stroke-width:0.90566"
         d="M -4.6111212e-8,70.443627 V -1.1035478 H 345.96225 691.9245 V 70.443627 141.9908 H 345.96225 -4.6111212e-8 Z M 70.244399,120.93419 c 1.678495,-5.42381 8.55937,-18.74231 11.289493,-21.851748 3.956846,-4.506605 7.54364,-6.699472 18.02726,-11.021368 16.865478,-6.952838 26.075728,-15.308256 34.381238,-31.190209 2.64295,-5.0539 4.66259,-9.317264 4.48809,-9.474143 C 137.11313,46.21242 84.081233,14.150225 83.870785,14.410844 83.722152,14.59491 81.616292,18.543995 79.191097,23.186588 72.256607,36.461402 70.860058,37.712222 53.572119,46.132229 39.744564,52.866874 37.963438,54.016034 32.150942,59.952906 26.084655,66.148998 21.564511,73.2274 16.344592,84.705145 c -1.18865,2.613646 -1.982334,4.93093 -1.763743,5.14952 0.827311,0.827312 53.825135,33.047425 54.414721,33.081515 0.340019,0.0197 0.901992,-0.88123 1.248829,-2.00199 z M 54.760495,105.93704 C 49.298825,102.5452 40.036771,96.808987 34.178152,93.189896 l -10.652034,-6.580168 3.851045,-7.403805 c 2.535325,-4.874271 5.901768,-9.491914 9.853396,-13.515584 5.064228,-5.156555 7.54265,-6.827673 15.857593,-10.69225 15.986789,-7.43026 17.605493,-8.357956 22.037516,-12.629936 2.325485,-2.241509 5.953785,-7.030189 8.062889,-10.64151 2.109103,-3.611321 4.00762,-6.566038 4.218925,-6.566038 0.374948,0 40.418878,24.323487 41.073998,24.94917 0.1818,0.17363 -1.21284,3.087701 -3.09919,6.475714 -5.1416,9.234633 -13.68924,17.304622 -23.04267,21.755019 -4.233964,2.014536 -10.819129,5.141078 -14.633705,6.947874 -8.712268,4.126617 -14.484704,10.187129 -18.884078,19.826498 -1.738805,3.80985 -3.379616,6.94098 -3.646248,6.95806 -0.266632,0.0171 -4.953424,-2.74407 -10.415094,-6.1359 z m 10.132189,-8.107935 c 4.405929,-8.020012 9.535644,-12.574797 19.333728,-17.166844 4.732075,-2.217772 11.160244,-5.250577 14.284808,-6.739566 7.01256,-3.341775 15.05257,-10.682196 19.14027,-17.474788 2.62691,-4.365157 2.8961,-5.302286 1.81132,-6.305498 -1.6242,-1.502083 -29.049366,-17.899213 -29.348442,-17.547034 -0.123001,0.144839 -0.845835,1.485985 -1.606298,2.980325 -2.015973,3.961463 -8.436675,10.978156 -12.757072,13.941226 -2.06305,1.414907 -7.418925,4.127287 -11.901944,6.02751 -10.348062,4.386247 -16.594106,8.325058 -21.825306,13.763235 -4.162052,4.326727 -10.349298,13.880377 -10.298289,15.90146 0.02162,0.856509 28.086578,17.551879 29.859444,17.762879 0.249057,0.0296 1.737558,-2.28466 3.307781,-5.142905 z M 70.188676,74.554329 C 63.448194,72.0877 61.393268,66.529723 65.559641,62.034132 c 5.66433,-6.111914 18.583646,-4.690182 21.506723,2.36675 2.920599,7.050951 -7.774166,13.484813 -16.877688,10.153447 z M 399.52941,103.57541 c 4.23224,-1.76834 5.75305,-4.826915 15.15554,-30.479949 4.45986,-12.167943 8.38988,-22.836741 8.73337,-23.708439 0.55846,-1.417294 -0.041,-1.584906 -5.66865,-1.584906 h -6.29316 l -1.1237,3.849057 c -0.61803,2.116981 -2.57741,8.507295 -4.35417,14.200698 l -3.23047,10.351641 -4.61938,-13.974283 -4.61937,-13.974283 -6.11321,-0.267795 c -3.36226,-0.147286 -6.11321,0.03241 -6.11321,0.399328 0,0.366917 3.26038,9.502326 7.24529,20.300908 3.9849,10.798581 7.24528,20.324922 7.24528,21.169642 0,3.678349 -1.72086,5.03943 -6.37148,5.03943 h -4.49645 v 4.981133 4.981128 h 5.7762 c 3.1769,0 7.15831,-0.57748 8.84757,-1.28331 z M 273.96225,89.57939 c 9.88395,-4.514517 14.64485,-16.740392 11.11144,-28.533877 -1.50325,-5.017404 -8.23372,-11.865135 -12.92276,-13.147912 -11.24671,-3.076754 -21.80269,1.119651 -26.38712,10.489871 -2.03341,4.156148 -2.29302,5.689569 -2.01154,11.881396 0.27275,5.999753 0.74943,7.79879 3.05416,11.526542 5.24832,8.488864 17.76042,12.075352 27.15582,7.78398 z m -14.19077,-8.747406 c -3.20031,-1.737997 -4.66269,-6.471238 -4.20759,-13.618495 0.42515,-6.676919 2.72157,-9.965203 7.59825,-10.880073 6.38205,-1.197281 11.24883,4.233046 11.25154,12.554394 0.004,10.587892 -6.8481,16.176936 -14.6422,11.944174 z m 109.41351,8.475058 c 4.04494,-1.901345 9.38103,-8.353221 9.38103,-11.342612 0,-1.817889 -9.85029,-1.621124 -10.55327,0.210807 -0.78715,2.051298 -5.19165,4.041976 -8.94311,4.041976 -4.02639,0 -8.57909,-4.048222 -8.57909,-7.628448 v -2.333817 h 14.49057 14.49056 v -3.743982 c 0,-6.161193 -1.93849,-10.886115 -6.32252,-15.410663 -2.84505,-2.936233 -5.33202,-4.55399 -8.15867,-5.307145 -10.14406,-2.702867 -20.994,2.747089 -25.13218,12.623955 -1.73374,4.138005 -1.63991,14.137914 0.17288,18.425405 1.8328,4.334819 7.68216,10.05097 11.55482,11.29167 5.27882,1.691195 13.01496,1.327599 17.59898,-0.827146 z M 350.49055,62.86765 c 0,-2.406563 3.60284,-5.80363 6.78912,-6.401381 4.23347,-0.794205 7.72397,0.981064 9.22991,4.694338 l 1.19372,2.943397 h -8.60638 c -6.66846,0 -8.60637,-0.278391 -8.60637,-1.236354 z m 170.49866,26.298017 c 3.92559,-1.987391 4.18892,-2.01333 4.59699,-0.45283 0.36496,1.395558 1.38518,1.65532 6.50136,1.65532 5.44841,0 5.99533,-0.161941 5.3527,-1.584906 -0.39369,-0.871698 -0.88352,-9.012112 -1.08854,-18.089808 l -0.37276,-16.504902 -2.73639,-2.675336 c -7.39394,-7.228938 -27.35868,-5.449666 -32.44454,2.891481 -0.97483,1.598776 -1.77394,3.823846 -1.7758,4.944601 -0.004,1.904555 0.38136,2.037736 5.88341,2.037736 4.62893,0 5.88679,-0.290276 5.88679,-1.358491 0,-2.588159 3.44962,-4.981133 7.18059,-4.981133 4.03414,0 6.40432,1.826369 6.40432,4.93493 0,3.131552 -1.75064,4.052516 -10.34918,5.444442 -4.30846,0.69745 -9.14244,2.02354 -10.74219,2.946867 -8.12801,4.691249 -7.71244,17.153188 0.71401,21.411355 4.24849,2.146904 12.08984,1.86106 16.98923,-0.619326 z m -10.19678,-7.854115 c -3.9642,-3.9642 -1.04196,-7.636096 7.4717,-9.388464 l 6.11321,-1.258283 v 3.832636 c 0,5.350598 -3.07827,8.625432 -8.1077,8.625432 -2.45834,0 -4.26254,-0.596651 -5.47721,-1.811321 z m 103.03559,8.560547 c 3.96398,-1.656252 7.13833,-4.451375 8.89951,-7.836326 2.27858,-4.379354 1.74891,-5.252523 -3.18619,-5.252523 -3.74649,0 -4.8926,0.433963 -7.17561,2.716981 -2.91756,2.917555 -6.89115,3.548431 -11.44494,1.817082 -2.12254,-0.806986 -4.99629,-5.481808 -4.99629,-8.127616 0,-0.605049 5.30704,-0.934749 15.04623,-0.934749 h 15.04623 l -0.61705,-4.301887 c -1.1425,-7.965191 -2.63604,-11.466373 -6.49468,-15.224986 -5.86175,-5.709778 -12.55228,-7.114879 -20.68438,-4.343994 -17.75097,6.048366 -18.98047,33.488067 -1.84352,41.143487 4.54007,2.028136 13.02055,2.195565 17.45069,0.344531 z m -17.90352,-26.2659 c 0,-2.208497 3.17238,-5.85164 5.87105,-6.74228 5.45431,-1.800085 11.3365,1.508781 11.3365,6.377038 0,0.486391 -3.75491,0.863047 -8.60377,0.863047 -4.73208,0 -8.60378,-0.224012 -8.60378,-0.497805 z m -410.21144,7.063843 0.0527,-19.698115 6.86367,19.739613 6.86369,19.739611 5.01576,-0.267912 5.01577,-0.267912 6.5861,-19.01887 6.58611,-19.018869 0.0478,19.245284 0.0478,19.245285 h 6.33963 6.33962 V 61.35534 32.342523 l -9.26266,0.258098 -9.26266,0.258098 -5.885,18.76932 c -3.23676,10.323126 -6.14974,18.47407 -6.47331,18.113208 -0.32357,-0.360861 -3.32214,-8.908941 -6.66347,-18.995735 l -6.07517,-18.339624 h -8.98132 -8.98131 v 28.981135 28.981134 h 5.88679 5.88679 l 0.0527,-19.698115 z m 119.49447,4.619884 c 0.52976,-17.110103 1.09011,-18.431206 7.8176,-18.431206 6.31421,0 7.05887,1.920331 7.44711,19.204775 l 0.32131,14.304662 h 5.87827 5.87828 l -0.32876,-16.528303 c -0.27281,-13.715432 -0.61009,-17.099478 -1.98189,-19.884498 -3.94687,-8.012922 -17.52754,-9.404847 -23.998,-2.45963 l -1.93958,2.081898 v -2.887755 -2.887753 h -5.43396 -5.43396 v 21.326236 21.326232 l 5.66038,-0.269624 5.66037,-0.269633 z m 135.15215,-4.548068 0.24408,-19.626298 6.67876,19.626298 6.67877,19.626299 h 5.11062 5.1106 l 6.47506,-19.245285 6.47505,-19.245284 0.0752,19.245284 0.0752,19.245285 h 6.33963 6.33962 V 61.35534 32.342523 l -9.21971,0.258098 -9.21968,0.258098 -5.91132,18.785945 c -3.25123,10.33227 -6.18355,18.483214 -6.51626,18.113209 -0.33271,-0.370005 -3.33876,-8.925567 -6.6801,-19.012361 l -6.07517,-18.339624 h -8.98131 -8.98132 v 28.981135 28.981134 h 5.86913 5.86913 z M 574.56615,69.76397 c 3.77729,-11.332301 6.86779,-20.90966 6.86779,-21.28302 0,-0.373358 -2.54717,-0.676386 -5.66038,-0.673393 l -5.66038,0.0054 -4.03514,13.574515 c -2.21932,7.465984 -4.30323,13.271083 -4.63089,12.900221 -0.32768,-0.370856 -2.34011,-6.481836 -4.47208,-13.57995 l -3.87631,-12.905661 h -6.20977 c -3.41537,0 -6.20977,0.17579 -6.20977,0.390644 0,0.315282 12.50836,36.940152 14.01738,41.043321 0.27844,0.757096 2.50071,1.132076 6.70906,1.132076 h 6.29271 z m 68.60928,6.578893 c 0.33282,-12.387423 0.59429,-14.317594 2.23899,-16.528303 1.47961,-1.988805 2.70999,-2.559015 5.9892,-2.775628 6.5385,-0.431912 7.01145,0.824647 7.01145,18.628722 v 14.783262 l 6.1132,-0.267795 6.11321,-0.267794 0.2545,-11.68436 c 0.32947,-15.12635 -0.8096,-23.555884 -3.59098,-26.574548 -2.72119,-2.953344 -7.05968,-4.764994 -11.35141,-4.740073 -4.11523,0.0239 -10.56233,2.785895 -11.90844,5.10169 -0.83645,1.438998 -0.97505,1.262405 -0.99877,-1.272524 l -0.0275,-2.943396 h -5.88679 -5.88679 v 21.28302 21.283021 h 5.77667 5.77667 z"
         id="path442" />
    </g>
  </g>
</svg>
