<?xml version="1.0" encoding="UTF-8" standalone="no"?>
<!-- Created with Inkscape (http://www.inkscape.org/) -->

<svg
   version="1.1"
   id="svg182"
   width="171.16982"
   height="134.94341"
   viewBox="0 0 171.16982 134.94341"
   sodipodi:docname="logo_just_img.svg"
   inkscape:version="1.2 (dc2aedaf03, 2022-05-15)"
   xmlns:inkscape="http://www.inkscape.org/namespaces/inkscape"
   xmlns:sodipodi="http://sodipodi.sourceforge.net/DTD/sodipodi-0.dtd"
   xmlns="http://www.w3.org/2000/svg"
   xmlns:svg="http://www.w3.org/2000/svg">
  <defs
     id="defs186" />
  <sodipodi:namedview
     id="namedview184"
     pagecolor="#ffffff"
     bordercolor="#000000"
     borderopacity="0.25"
     inkscape:showpageshadow="2"
     inkscape:pageopacity="0.0"
     inkscape:pagecheckerboard="0"
     inkscape:deskcolor="#d1d1d1"
     showgrid="false"
     inkscape:zoom="5.8765376"
     inkscape:cx="85.509535"
     inkscape:cy="67.471703"
     inkscape:window-width="1920"
     inkscape:window-height="1002"
     inkscape:window-x="-8"
     inkscape:window-y="-8"
     inkscape:window-maximized="1"
     inkscape:current-layer="g188" />
  <g
     inkscape:groupmode="layer"
     inkscape:label="Image"
     id="g188">
    <g
       id="g300"
       transform="translate(0.17016773,-1.0210093)">
      <path
         style="fill:#faf6fb;stroke-width:0.90566"
         d="M 55.245286,105.36459 C 41.049059,96.682171 28.831903,89.223122 28.096052,88.788936 26.986647,88.134338 27.635232,86.246493 31.893527,77.735606 40.329065,60.875826 48.419209,52.805355 64.029198,45.678082 82.90331,37.060461 84.633488,35.590885 91.771431,22.114431 c 2.616679,-4.940295 5.148,-8.91188 5.625166,-8.825746 0.614689,0.110963 51.440683,30.853425 53.621883,32.433575 0.72933,0.528368 -10.83301,20.258193 -14.06545,24.001077 -5.65222,6.544783 -14.10493,12.181326 -25.2508,16.838061 -5.39849,2.255485 -11.28544,5.113123 -13.082113,6.35031 -4.534588,3.122509 -8.506626,8.971592 -12.733752,18.751242 -1.981968,4.58539 -3.879468,8.596 -4.216668,8.91247 -0.337199,0.31648 -12.228184,-6.5284 -26.424411,-15.21083 z m 26.566939,-2.25741 c 4.458329,-9.472375 10.87942,-16.075597 19.373745,-19.923292 16.28089,-7.374792 19.82796,-9.177345 23.80709,-12.098293 5.83468,-4.28305 16.99419,-19.648744 16.1255,-22.203441 -0.30643,-0.901185 -40.19174,-25.349606 -41.297438,-25.31402 -0.358216,0.01153 -2.260574,2.881816 -4.22746,6.378416 -4.936066,8.775034 -11.419472,14.643229 -21.11876,19.114809 -4.349874,2.005386 -9.661915,4.46744 -11.804537,5.471232 -5.539397,2.595138 -12.080446,7.717956 -16.155416,12.652596 -4.922413,5.960863 -10.740074,16.951959 -9.58446,18.107573 1.120048,1.120048 40.221033,25.19889 40.913714,25.19514 0.272484,-0.002 2.058093,-3.3228 3.968022,-7.38072 z M 59.95108,93.326545 c -7.623135,-4.361523 -14.290975,-8.360774 -14.817423,-8.887221 -1.490451,-1.490451 3.382159,-9.677744 9.866444,-16.578278 5.889205,-6.267255 10.693077,-9.273184 23.753454,-14.863258 10.08161,-4.315109 15.348811,-8.349499 20.095884,-15.392351 2.168661,-3.217474 4.289321,-5.86286 4.712571,-5.878636 0.93064,-0.03469 29.57007,17.112107 29.57007,17.703984 0,0.837809 -4.89496,8.182741 -7.95347,11.934253 -4.07264,4.99542 -13.06151,10.825442 -23.29181,15.106653 -14.341024,6.001477 -20.939775,11.521057 -25.269625,21.13698 -0.947349,2.103913 -1.966217,3.785389 -2.264151,3.736609 -0.297935,-0.0488 -6.77881,-3.65721 -14.401944,-8.018735 z m 34.165432,-20.49767 c 8.448768,-3.380525 8.448768,-11.862117 0,-15.242642 -4.659783,-1.864476 -7.67054,-1.786457 -12.307588,0.318933 -7.811115,3.546533 -7.735156,10.960815 0.153344,14.967752 3.494381,1.774959 7.645709,1.759916 12.154244,-0.04404 z"
         id="path304" />
      <path
         style="fill:#800ba7;stroke-width:0.90566"
         d="M 0,67.471705 V 0 h 85.58491 85.58491 V 67.471705 134.94341 H 85.58491 0 Z m 85.886365,44.191245 c 4.227126,-9.77965 8.199164,-15.628733 12.733752,-18.751242 1.796673,-1.237187 7.683623,-4.094825 13.082113,-6.35031 11.14587,-4.656735 19.59858,-10.293278 25.2508,-16.838061 3.23244,-3.742884 14.79478,-23.472709 14.06545,-24.001077 -2.1812,-1.58015 -53.007194,-32.322612 -53.621883,-32.433575 -0.477166,-0.08614 -3.008487,3.885451 -5.625166,8.825746 -7.137943,13.476454 -8.868121,14.94603 -27.742233,23.563651 -15.609989,7.127273 -23.700133,15.197744 -32.135671,32.057524 -4.258295,8.510887 -4.90688,10.398732 -3.797475,11.05333 0.735851,0.434186 12.953007,7.893235 27.149234,16.575654 14.196227,8.68243 26.087212,15.52731 26.424411,15.21083 0.3372,-0.31647 2.2347,-4.32708 4.216668,-8.91247 z M 57.596607,98.348641 C 46.732911,91.670572 37.433159,85.79543 36.930489,85.29276 c -1.155614,-1.155614 4.662047,-12.14671 9.58446,-18.107573 4.07497,-4.93464 10.616019,-10.057458 16.155416,-12.652596 2.142622,-1.003792 7.454663,-3.465846 11.804537,-5.471232 9.699288,-4.47158 16.182694,-10.339775 21.11876,-19.114809 1.966886,-3.4966 3.869244,-6.366887 4.22746,-6.378416 1.105698,-0.03558 40.991008,24.412835 41.297438,25.31402 0.86869,2.554697 -10.29082,17.920391 -16.1255,22.203441 -3.97913,2.920948 -7.5262,4.723501 -23.80709,12.098293 -8.494325,3.847695 -14.915416,10.450917 -19.373745,19.923292 -1.909929,4.05792 -3.695538,7.37924 -3.968022,7.38072 -0.272482,0.002 -9.383902,-5.46119 -20.247596,-12.139259 z m 19.020568,-0.73997 c 4.32985,-9.615923 10.928601,-15.135503 25.269625,-21.13698 10.2303,-4.281211 19.21917,-10.111233 23.29181,-15.106653 3.05851,-3.751512 7.95347,-11.096444 7.95347,-11.934253 0,-0.591877 -28.63943,-17.738673 -29.57007,-17.703984 -0.42325,0.01578 -2.54391,2.661162 -4.712571,5.878636 -4.747073,7.042852 -10.014274,11.077242 -20.095884,15.392351 -13.060377,5.590074 -17.864249,8.596003 -23.753454,14.863258 -6.484285,6.900534 -11.356895,15.087827 -9.866444,16.578278 0.974203,0.974203 28.229774,16.743936 29.219367,16.905956 0.297934,0.0488 1.316802,-1.632696 2.264151,-3.736609 z m 5.345093,-24.735753 c -7.8885,-4.006937 -7.964459,-11.421219 -0.153344,-14.967752 4.637048,-2.10539 7.647805,-2.183409 12.307588,-0.318933 3.845905,1.538825 6.411798,4.588748 6.411798,7.621321 0,6.661959 -11.331206,11.340274 -18.566042,7.665364 z"
         id="path302" />
    </g>
  </g>
</svg>
