<?xml version="1.0" encoding="UTF-8" standalone="no"?>
<!-- Created with Inkscape (http://www.inkscape.org/) -->

<svg
   version="1.1"
   id="svg2128"
   width="730.86792"
   height="252.67924"
   viewBox="0 0 730.86792 252.67924"
   sodipodi:docname="logo_with_name_and_tagline.svg"
   inkscape:version="1.2 (dc2aedaf03, 2022-05-15)"
   xmlns:inkscape="http://www.inkscape.org/namespaces/inkscape"
   xmlns:sodipodi="http://sodipodi.sourceforge.net/DTD/sodipodi-0.dtd"
   xmlns="http://www.w3.org/2000/svg"
   xmlns:svg="http://www.w3.org/2000/svg">
  <defs
     id="defs2132" />
  <sodipodi:namedview
     id="namedview2130"
     pagecolor="#ffffff"
     bordercolor="#000000"
     borderopacity="0.25"
     inkscape:showpageshadow="2"
     inkscape:pageopacity="0.0"
     inkscape:pagecheckerboard="0"
     inkscape:deskcolor="#d1d1d1"
     showgrid="false"
     inkscape:zoom="1.7157683"
     inkscape:cx="365.72537"
     inkscape:cy="126.76537"
     inkscape:window-width="1920"
     inkscape:window-height="1002"
     inkscape:window-x="-8"
     inkscape:window-y="-8"
     inkscape:window-maximized="1"
     inkscape:current-layer="g2134" />
  <g
     inkscape:groupmode="layer"
     inkscape:label="Image"
     id="g2134">
    <g
       id="g2255"
       transform="translate(-0.58282931,1.7484875)">
      <path
         style="fill:#fdfdfd;stroke-width:0.90566"
         d="m 139.92453,213.73584 c -0.87715,-1.41925 0.36343,-2.71698 2.59733,-2.71698 2.66842,0 4.39809,-1.44308 7.22322,-6.02644 l 2.31905,-3.7623 -2.52712,-13.67166 -2.52712,-13.67167 h 2.1177 c 1.41505,0 2.11596,0.52586 2.11249,1.5849 -0.0104,3.1701 2.98856,21.05604 3.52707,21.03562 0.30448,-0.0115 3.40643,-5.1049 6.89323,-11.31859 5.13915,-9.15829 6.72029,-11.29801 8.34991,-11.29977 1.78231,-0.002 0.87019,1.87229 -8.04275,16.52614 -5.52917,9.09057 -10.84706,17.65521 -11.81754,19.03253 -2.80255,3.97747 -8.85011,6.51361 -10.22547,4.28822 z m 254.03773,-0.79245 c 0,-1.5082 0.5536,-1.92453 2.55912,-1.92453 3.62534,0 9.21602,-6.71293 9.21306,-11.06247 -9e-4,-1.78054 -2.76437,-17.9316 -4.11143,-24.03187 -0.34688,-1.57085 -0.045,-2.03773 1.31757,-2.03773 2.09208,0 2.32127,0.6919 3.75014,11.32075 1.75534,13.05732 1.51884,13.05366 8.96306,0.13884 4.76225,-8.26193 7.07994,-11.45959 8.306,-11.45959 0.93533,0 1.70059,0.20568 1.70059,0.45707 0,1.55063 -22.51279,36.97576 -24.20132,38.08213 -1.13882,0.74618 -3.29147,1.60087 -4.78368,1.89931 -2.33277,0.46655 -2.71311,0.27282 -2.71311,-1.38191 z m 132.22642,0.39185 c 0,-0.22033 1.63018,-8.191 3.62264,-17.7126 1.99245,-9.52161 3.62264,-18.30737 3.62264,-19.52393 0,-1.60814 0.49443,-2.21192 1.81132,-2.21192 1.39821,0 1.81132,0.60378 1.81132,2.64732 v 2.64731 l 2.60094,-2.60093 c 5.0065,-5.00651 10.92857,-4.30938 13.38762,1.57595 2.56493,6.13875 -0.23388,15.62303 -6.05607,20.52209 -2.90891,2.44768 -3.91114,2.7065 -10.78448,2.78498 l -4.0218,0.0459 -1.31189,6.11321 c -1.04872,4.88688 -1.64993,6.1132 -2.99706,6.1132 -0.92686,0 -1.68518,-0.18027 -1.68518,-0.4006 z m 19.48111,-17.99372 c 4.68667,-4.68667 6.24607,-13.66125 3.04413,-17.51936 -1.3628,-1.64208 -5.36091,-1.54018 -7.84529,0.19995 -2.61723,1.83318 -5.37087,7.27751 -6.61503,13.07884 -1.35647,6.32496 -0.82334,7.23867 4.22364,7.23867 3.54036,0 4.66198,-0.46753 7.19255,-2.9981 z m 40.29247,13.84731 c 0,-0.50841 1.42593,-7.5386 3.16873,-15.62264 1.7428,-8.08405 3.16922,-15.00393 3.16982,-15.37751 5.8e-4,-0.37359 -0.97964,-0.67925 -2.17829,-0.67925 -3.07519,0 -2.13574,-3.41443 1.04492,-3.7978 1.92494,-0.23201 2.48587,-0.99856 3.41126,-4.66166 1.43011,-5.66096 3.83025,-8.04239 8.24872,-8.18435 2.61582,-0.084 3.53,0.27292 3.7748,1.474 0.2592,1.27166 -0.31026,1.5849 -2.88131,1.5849 -3.49021,0 -4.79437,1.51309 -6.03133,6.99756 -0.6558,2.90779 -0.60835,2.96471 2.4722,2.96471 2.50193,0 3.07975,0.3224 2.84049,1.5849 -0.20859,1.1007 -1.31605,1.66962 -3.62491,1.86217 -3.16721,0.26414 -3.36715,0.47845 -4.22464,4.5283 -0.49505,2.33807 -2.04247,9.65104 -3.43872,16.25104 -2.10121,9.93234 -2.81544,12 -4.14518,12 -0.88361,0 -1.60656,-0.41597 -1.60656,-0.92437 z m -408.02195,-8.49082 c -3.46839,-1.51117 -4.95918,-4.77653 -4.95918,-10.86233 0,-13.21785 13.45352,-21.68298 21.0566,-13.24907 3.29983,3.66041 3.42374,10.20148 0.31954,16.86814 -1.71909,3.69195 -2.96213,5.01609 -6.16389,6.56604 -4.59894,2.22631 -6.42138,2.34668 -10.25307,0.67722 z m 9.97183,-4.32177 c 4.98225,-3.91905 6.82476,-14.31859 3.1822,-17.96115 -3.59945,-3.59945 -10.09459,-1.34554 -13.15017,4.5633 -1.7623,3.4079 -1.7239,10.78803 0.0695,13.34839 1.85848,2.65335 6.55837,2.67683 9.89853,0.0494 z m 17.88601,4.64727 c -3.44631,-1.38454 -4.0803,-4.76317 -2.44186,-13.01303 2.47283,-12.45123 3.04805,-14.12369 4.85758,-14.12369 1.57708,0 1.5586,0.46842 -0.39976,10.13471 -2.42105,11.9502 -2.01887,14.31812 2.43193,14.31812 2.23278,0 3.75614,-0.89912 6.66246,-3.93232 3.39095,-3.53899 3.93626,-4.76196 5.45158,-12.22642 1.37602,-6.77817 1.98322,-8.29409 3.32222,-8.29409 2.04209,0 2.11134,-0.99743 -0.9747,14.03773 -1.9695,9.59535 -2.95946,12.75047 -4.07014,12.97207 -1.11288,0.22204 -1.46765,-0.42096 -1.46765,-2.66001 v -2.95282 l -2.49057,2.32293 c -4.50898,4.20549 -6.98368,4.98259 -10.88109,3.41682 z m 112.36439,-0.83264 c -9.14018,-5.57313 -3.68289,-24.83985 7.56664,-26.71373 9.31421,-1.5515 14.47316,6.98993 10.69304,17.70396 -1.6742,4.74518 -4.39825,7.86935 -8.31766,9.53939 -3.97052,1.69182 -6.52164,1.55592 -9.94202,-0.52962 z m 11.48212,-4.41318 c 4.50423,-4.50424 5.81903,-12.78043 2.66696,-16.78763 -1.99528,-2.5366 -5.82682,-3.17398 -8.96946,-1.49209 -5.15517,2.75897 -7.83525,14.88898 -4.18293,18.93188 2.56718,2.8417 7.285,2.54827 10.48543,-0.65216 z m 49.11389,4.82009 c -7.88901,-3.42761 -6.65916,-19.7227 1.88176,-24.93256 8.47699,-5.17089 17.40634,-0.83212 14.58413,7.08643 -1.28013,3.5918 -4.96137,5.66783 -11.97533,6.75349 -7.25522,1.12301 -7.98436,2.16772 -4.55536,6.52698 1.71259,2.17721 2.42651,2.42177 6.11321,2.09411 2.29579,-0.20405 4.85764,-0.67925 5.693,-1.056 1.21412,-0.54758 1.4208,-0.31017 1.03022,1.18341 -0.31211,1.19348 -1.67861,2.19895 -3.78298,2.78346 -4.25248,1.18119 -5.38647,1.12576 -8.98865,-0.43932 z m 9.76975,-15.61806 c 5.38199,-2.6886 4.53064,-8.40586 -1.24297,-8.34715 -1.55788,0.0159 -3.61489,0.62079 -4.57115,1.34434 -2.1248,1.60771 -5.0397,5.91383 -5.04784,7.45705 -0.009,1.70509 7.13774,1.40622 10.86196,-0.45424 z m 55.69811,15.75185 c -1.99245,-0.60032 -3.52075,-1.3841 -3.39622,-1.74172 0.12452,-0.35763 0.22641,-1.27202 0.22641,-2.03198 0,-1.23855 0.2769,-1.23855 2.67201,0 6.38133,3.29992 14.53554,0.44268 14.53554,-5.09327 0,-2.69314 -2.01468,-5.29407 -7.27782,-9.39557 -5.89911,-4.59713 -7.13155,-10.91544 -3.07053,-15.74168 3.00495,-3.5712 7.82154,-5.04027 13.11068,-3.99879 3.26298,0.64249 4.08839,1.2009 4.33623,2.93356 0.25535,1.78512 0.0301,2.01713 -1.35849,1.39905 -0.91553,-0.40752 -3.51393,-0.90593 -5.77422,-1.10758 -5.49207,-0.48996 -8.47906,1.78879 -8.47906,6.46861 0,2.90069 0.72955,3.97808 6.06793,8.9612 5.5265,5.15872 6.06762,5.98606 6.06453,9.27242 -0.008,8.92244 -7.42955,13.15724 -17.65699,10.07575 z m 179.06044,-0.13379 c -7.2487,-3.14941 -7.37148,-15.6944 -0.22634,-23.12676 7.41636,-7.71449 19.91457,-3.76064 16.69223,5.28063 -1.28013,3.5918 -4.96137,5.66783 -11.97533,6.75349 -7.22651,1.11856 -7.98092,2.1721 -4.61734,6.44819 1.46793,1.86617 2.66529,2.38629 5.4935,2.38629 1.98905,0 4.40475,-0.42189 5.36823,-0.93752 1.4589,-0.78079 1.75178,-0.63649 1.75178,0.86308 0,1.30927 -0.92676,2.058 -3.39623,2.7438 -4.35981,1.21078 -5.47328,1.16041 -9.0905,-0.4112 z m 9.31378,-15.33055 c 3.47502,-1.45197 5.03529,-5.06099 3.16319,-7.31673 -1.46057,-1.75988 -6.29468,-1.72343 -8.8505,0.0667 -2.00467,1.40413 -4.72464,5.77838 -4.72464,7.59816 0,1.38867 6.79926,1.1613 10.41195,-0.34817 z m 16.14308,15.61844 c -4.81367,-2.32722 -5.29316,-13.94702 -0.85245,-20.6574 3.06284,-4.62825 8.86722,-7.49212 14.34557,-7.07805 l 3.75414,0.28374 1.31934,-6.11321 c 1.05408,-4.88421 1.65811,-6.11321 3.00451,-6.11321 0.92685,0 1.68518,0.20883 1.68518,0.46407 0,0.25524 -1.63019,8.04363 -3.62265,17.30754 -1.99245,9.26391 -3.62264,18.02112 -3.62264,19.46046 0,2.01321 -0.4179,2.61699 -1.81132,2.61699 -1.43884,0 -1.81224,-0.60527 -1.81582,-2.9434 l -0.005,-2.94339 -2.03324,2.40525 c -3.49675,4.13652 -6.59028,5.12642 -10.34613,3.31061 z m 8.57633,-3.96439 c 2.63496,-1.8456 5.14509,-6.88757 6.41743,-12.89039 1.5455,-7.29157 1.49713,-7.42712 -2.65037,-7.42712 -5.05989,0 -8.66351,2.10677 -10.81407,6.32221 -1.97029,3.86209 -2.41808,10.79292 -0.88268,13.66186 1.1496,2.14803 5.10174,2.31422 7.92969,0.33344 z m -425.19026,2.09758 c 0.2624,-1.12075 1.37729,-6.72452 2.47754,-12.45283 2.53687,-13.20787 2.36986,-12.67924 4.00577,-12.67924 0.95609,0 1.38691,0.89897 1.38691,2.89396 v 2.89396 l 3.06554,-3.34679 c 3.94476,-4.30667 8.2108,-4.65138 7.14543,-0.57737 -0.32123,1.22838 -1.24758,1.75888 -3.07132,1.75888 -4.86886,0 -7.93925,4.75992 -10.37152,16.07866 -1.33944,6.23318 -1.89524,7.46851 -3.36017,7.46851 -1.35786,0 -1.64725,-0.46136 -1.27818,-2.03774 z m 34.13064,1.35849 c -0.002,-0.37358 1.04046,-5.56981 2.3167,-11.54717 1.27624,-5.97735 2.50832,-11.7849 2.73797,-12.90566 0.24459,-1.1937 1.08531,-2.03773 2.02974,-2.03773 1.31017,0 1.54267,0.59565 1.24102,3.17946 l -0.37118,3.17945 3.12608,-3.12608 c 1.71933,-1.71933 4.21268,-3.39878 5.54076,-3.73211 3.01763,-0.75738 6.68499,1.47266 7.4528,4.53186 l 0.55175,2.19833 3.03174,-3.03174 c 5.17187,-5.17186 11.17514,-5.05738 13.22018,0.25212 1.17627,3.05394 -2.53753,22.75513 -4.4261,23.47985 -2.25296,0.86454 -2.29634,-0.61836 -0.30973,-10.5893 2.26645,-11.37548 1.83442,-13.62486 -2.61684,-13.62486 -1.85037,0 -3.60498,0.99205 -5.85838,3.31231 -3.25061,3.34704 -3.98626,5.22824 -6.05357,15.48014 -0.92511,4.58771 -1.4718,5.66038 -2.88475,5.66038 -1.41832,0 -1.65083,-0.46431 -1.24717,-2.49057 3.43476,-17.2415 3.66533,-19.13606 2.4998,-20.54043 -2.14485,-2.58439 -5.90324,-1.72974 -9.39634,2.13671 -3.25429,3.60212 -4.30443,6.27435 -6.16461,15.68674 -0.81345,4.11607 -1.38411,5.20755 -2.72266,5.20755 -0.93141,0 -1.69516,-0.30566 -1.69721,-0.67925 z m 76.41296,-0.90566 c 0.2507,-0.87169 1.57189,-6.9849 2.93597,-13.5849 2.05021,-9.91978 2.75689,-12 4.07657,-12 1.33482,0 1.50741,0.54853 1.05323,3.3473 l -0.54319,3.3473 3.26358,-3.26358 c 3.98276,-3.98275 7.98484,-5.08214 11.09118,-3.04678 3.34844,2.19397 3.57817,5.14187 1.28169,16.44661 -1.80732,8.89679 -2.3448,10.33896 -3.85315,10.33896 -1.4287,0 -1.66109,-0.46056 -1.25669,-2.49057 3.43476,-17.2415 3.66533,-19.13606 2.4998,-20.54043 -1.89239,-2.2802 -5.99141,-1.71838 -9.41888,1.29098 -3.58721,3.14961 -4.4771,5.15821 -6.5221,14.72115 -1.25465,5.86714 -1.79327,7.01887 -3.28239,7.01887 -1.26649,0 -1.64968,-0.45815 -1.32562,-1.58491 z m 128.0436,0.60671 c -2.10036,-1.22335 -1.98776,-4.53038 0.55261,-16.22935 1.75617,-8.08756 2.34344,-9.55052 3.9276,-9.78422 1.85384,-0.27347 1.85204,-0.22507 -0.38018,10.20592 -1.23357,5.76438 -2.01125,11.08426 -1.72817,11.82195 0.28307,0.73769 1.34257,1.34126 2.35444,1.34126 2.07907,0 2.35603,0.93276 0.75294,2.53585 -1.31339,1.31339 -3.3417,1.35359 -5.47924,0.10859 z m 14.16582,-12.60671 c 2.40936,-11.64481 3.05183,-13.5849 4.49874,-13.5849 1.45987,0 1.60192,0.45868 1.05118,3.39437 l -0.63679,3.39438 3.21956,-3.31508 c 5.18475,-5.33856 11.57853,-5.47639 12.88331,-0.27772 0.68626,2.73425 1.38823,2.79902 3.61907,0.33397 4.17145,-4.6094 11.02237,-5.50384 13.0557,-1.70453 1.12379,2.09982 1.1489,7.59856 0.0537,11.75951 -0.45888,1.7434 -1.3006,5.51321 -1.87048,8.37736 -0.83209,4.1819 -1.38027,5.20755 -2.78328,5.20755 -2.11288,0 -2.11725,0.4932 0.0838,-9.46355 2.06872,-9.35811 2.22221,-12.38521 0.70493,-13.90249 -2.11517,-2.11518 -5.43886,-1.18605 -8.94614,2.50087 -2.8333,2.97841 -3.66853,4.78548 -4.91851,10.6415 -2.16405,10.13847 -2.19895,10.22367 -4.18945,10.22367 -1.29066,0 -1.68352,-0.45558 -1.36673,-1.58491 1.65693,-5.90689 3.40675,-16.59145 3.1518,-19.24528 -0.26817,-2.79148 -0.63455,-3.2021 -3.06972,-3.44031 -5.0752,-0.49649 -10.2255,5.62447 -11.65821,13.85541 -1.36521,7.84313 -2.36464,10.41509 -4.04717,10.41509 -1.53921,0 -1.46361,-0.88186 1.16471,-13.58491 z m 76.40022,12.60671 c -2.24427,-1.30716 -2.02786,-4.09743 1.6225,-20.91989 4.04332,-18.63337 3.81495,-17.95097 6.00712,-17.95097 1.1033,0 1.67403,0.4559 1.41721,1.13208 -1.33974,3.52731 -7.09235,32.66542 -6.66756,33.77243 0.279,0.72704 1.33516,1.32191 2.34702,1.32191 2.07907,0 2.35603,0.93276 0.75295,2.53585 -1.3134,1.31339 -3.34171,1.35359 -5.47924,0.10859 z m 14.49056,0 c -2.11693,-1.23301 -2.02757,-4.60044 0.43668,-16.45576 1.65037,-7.93978 2.31887,-9.73585 3.6237,-9.73585 2.01478,0 1.99018,1.26496 -0.21132,10.86792 -2.46924,10.7708 -2.39629,12.67925 0.48469,12.67925 2.01537,0 2.17753,0.2214 1.32663,1.81132 -1.05485,1.97101 -3.1718,2.28258 -5.66038,0.83312 z m 30.12019,-0.64536 c -2.04907,-1.65923 -2.0782,-1.87954 -0.99343,-7.51459 2.96345,-15.39414 3.78325,-18.03166 5.6046,-18.03166 1.35478,0 1.64992,0.46558 1.29182,2.03773 -2.62369,11.51827 -4.0998,19.86922 -3.64278,20.6087 0.30618,0.49541 1.37761,0.90074 2.38097,0.90074 1.24871,0 1.72896,0.50004 1.5222,1.5849 -0.42424,2.22585 -3.65772,2.44314 -6.16338,0.41418 z m -130.4598,-34.19548 c -0.96251,-1.15976 -0.90305,-1.66606 0.34194,-2.91105 1.4057,-1.4057 1.60851,-1.4057 3.01422,0 1.24498,1.24499 1.30445,1.75129 0.34193,2.91105 -0.64085,0.77218 -1.47291,1.40395 -1.84904,1.40395 -0.37613,0 -1.2082,-0.63177 -1.84905,-1.40395 z m 105.08164,0.0302 c -0.99478,-1.19863 -0.9438,-1.68052 0.31043,-2.93475 1.76354,-1.76354 3.68646,-0.49532 3.18342,2.09954 -0.42347,2.18443 -2.05117,2.57353 -3.49385,0.83521 z m 30.25589,0.0906 c -0.61844,-1.61163 0.12026,-4.15808 1.20008,-4.13692 0.38921,0.007 1.31898,0.40357 2.06615,0.87989 1.03115,0.65733 1.12468,1.24112 0.38813,2.42278 -1.3481,2.1628 -2.99985,2.53987 -3.65436,0.83425 z M 54.550054,122.49056 c -14.552489,-8.84151 -26.462561,-16.50457 -26.466826,-17.02904 -0.01417,-1.7427 7.124217,-15.733674 10.756751,-21.082818 1.968237,-2.898358 5.90226,-7.393424 8.742272,-9.989035 4.800046,-4.386972 7.958381,-6.146129 27.331782,-15.223498 7.00897,-3.284039 11.918553,-8.622349 16.932798,-18.411453 2.4239,-4.732075 4.530557,-8.750409 4.681458,-8.92963 0.315578,-0.374802 50.910841,30.377152 52.790351,32.086142 1.03885,0.944583 0.4495,2.567216 -3.58551,9.87196 -5.61182,10.159304 -12.78567,18.487935 -19.86659,23.064562 -2.7511,1.778111 -9.98316,5.4139 -16.07125,8.07953 -14.292235,6.25775 -18.108779,10.10454 -23.895576,24.08499 -2.165597,5.23191 -4.151906,9.52184 -4.41402,9.53317 -0.262113,0.0113 -12.383151,-7.21337 -26.93564,-16.05488 z m 27.685109,-1.09278 c 5.067709,-10.51284 11.420372,-16.64064 21.617297,-20.85214 13.98839,-5.777431 20.82739,-9.879547 26.39653,-15.832963 5.682,-6.074082 12.62674,-17.424385 11.35383,-18.55643 -2.84263,-2.528072 -42.371615,-25.585705 -42.614395,-24.857379 -0.166605,0.49981 -1.824136,3.504545 -3.683402,6.677187 -4.581528,7.817872 -10.786904,13.831726 -17.617811,17.074051 -3.127967,1.484705 -9.355137,4.429509 -13.838156,6.544009 -6.368882,3.004003 -9.437987,5.151701 -14.037736,9.823328 -4.94344,5.020688 -12.122274,15.758573 -13.987563,20.922177 -0.35894,0.99364 5.162819,4.82362 20.559733,14.26056 11.57776,7.09613 21.254245,12.89683 21.503302,12.89043 0.249057,-0.006 2.205824,-3.64817 4.348371,-8.09283 z M 59.15557,110.31192 44.499821,102.01286 45.910822,99.232843 c 3.229725,-6.363332 9.869609,-14.498468 14.790128,-18.120748 2.891483,-2.128588 10.245981,-6.054443 16.343331,-8.724122 12.051697,-5.276745 18.478834,-10.161266 23.196749,-17.629159 1.40328,-2.221227 2.883,-4.039323 3.28828,-4.040215 1.43672,-0.0032 28.6971,16.497605 28.6971,17.370413 0,1.895516 -6.72327,10.880518 -11.05768,14.777531 -2.50667,2.253708 -7.87055,5.675029 -11.91976,7.602936 -4.0492,1.927911 -10.50107,4.992403 -14.337493,6.81 -8.146538,3.859611 -13.788819,9.098821 -17.549464,16.295771 -1.454767,2.78407 -2.848806,5.05605 -3.097863,5.04884 -0.249056,-0.007 -7.047917,-3.74768 -15.10858,-8.31217 z M 94.474632,91.358525 c 4.173002,-2.149233 6.053668,-4.646291 6.053668,-8.037772 0,-5.473578 -5.087093,-9.058674 -12.84612,-9.053218 -5.84051,0.0041 -9.899097,2.213696 -11.597471,6.313934 -2.58821,6.248492 2.82238,11.795888 11.504989,11.795888 2.698706,0 5.796928,-0.458473 6.884934,-1.018832 z M 400.98113,120.72785 c -2.28303,-0.36239 -2.49057,-0.72992 -2.49057,-4.41065 v -4.01532 h 3.62265 c 3.8206,0 7.24528,-2.37491 7.24528,-5.0244 0,-0.77097 -3.0996,-9.838895 -6.88798,-20.150943 -3.78839,-10.312049 -7.09631,-19.462387 -7.35091,-20.334086 -0.405,-1.386536 0.22696,-1.584905 5.04912,-1.584905 h 5.51204 l 4.36923,13.644664 c 2.40307,7.504566 4.75281,13.648262 5.22165,13.652654 0.46883,0.0045 2.8067,-6.135709 5.19526,-13.644667 l 4.34285,-13.652651 h 5.50334 c 4.87851,0 5.43151,0.179945 4.87069,1.584905 -0.34795,0.871699 -4.4423,11.977359 -9.09854,24.679245 -7.3734,20.114104 -8.88032,23.474174 -11.67736,26.037734 -1.76631,1.61887 -4.13444,2.94896 -5.2625,2.95576 -1.12808,0.007 -2.86614,0.15763 -3.86236,0.33518 -0.99623,0.17754 -2.93208,0.14491 -4.30189,-0.0726 z M 272.89938,106.79197 c -8.43284,-1.58765 -13.88599,-7.074426 -15.6959,-15.792675 -2.87666,-13.856795 4.83122,-25.449087 17.59528,-26.462497 10.44342,-0.829162 17.124,2.68239 21.01992,11.048832 2.68485,5.765684 2.88631,14.616404 0.45454,19.969308 -3.78567,8.333172 -13.63844,13.069922 -23.37384,11.237032 z m 11.60626,-10.640518 c 4.14171,-4.634953 4.30277,-15.054505 0.3203,-20.72003 -2.65902,-3.782765 -9.74501,-4.448278 -13.47924,-1.265963 -6.13242,5.22606 -5.32222,20.918636 1.25707,24.347982 3.58138,1.866729 9.10221,0.771088 11.90187,-2.361989 z m 83.19247,10.591648 c -9.3348,-1.74196 -15.69472,-9.860074 -15.74849,-20.102168 -0.0362,-6.897339 1.49916,-11.557018 5.19508,-15.766443 7.70442,-8.774839 21.98391,-8.699818 29.28184,0.15384 3.08238,3.739463 4.81874,8.614633 4.81874,13.529574 v 3.291152 h -14.49057 -14.49056 v 2.309126 c 0,8.558952 10.72028,12.509839 17.17206,6.328646 1.87204,-1.793525 3.33246,-2.29815 6.65108,-2.29815 4.81891,0 5.14897,0.715146 2.23442,4.841325 -4.76931,6.751978 -11.76117,9.366888 -20.6236,7.713098 z m 12.62851,-28.177064 c -2.47655,-8.783018 -15.48436,-8.449332 -17.65231,0.45283 l -0.60653,2.490566 h 9.5444 9.5444 z m 140.42809,28.277354 c -6.95267,-1.20226 -10.54073,-5.98983 -9.74958,-13.008916 0.81295,-7.212511 4.24503,-9.580729 16.54204,-11.414397 7.70391,-1.148767 10.41509,-2.682475 10.41509,-5.891777 0,-5.962448 -11.25758,-7.631289 -14.38513,-2.132473 -1.33818,2.352772 -1.9058,2.574343 -6.60825,2.579577 l -5.14433,0.0057 0.82081,-2.862003 c 1.97871,-6.899351 8.6849,-10.206012 19.593,-9.660827 7.89184,0.394434 11.44102,1.781705 14.24623,5.568439 1.71296,2.312325 1.93578,4.140691 2.3456,19.246888 l 0.45283,16.691849 -5.20755,-0.002 c -4.60324,-10e-4 -5.20755,-0.21157 -5.20755,-1.8127 0,-2.2609 -0.3743,-2.2584 -3.46019,0.0231 -2.89327,2.13907 -10.11328,3.45435 -14.65302,2.66934 z m 11.66596,-7.318942 c 3.5073,-1.222651 5.54159,-4.862771 5.54159,-9.915993 0,-3.214751 -0.23146,-3.675087 -1.5849,-3.152164 -0.8717,0.336792 -3.59877,0.995961 -6.06017,1.464823 -6.3548,1.210501 -8.65988,2.94801 -8.64295,6.514854 0.007,1.607384 0.31329,3.37085 0.67925,3.918801 1.47311,2.205701 5.68983,2.695631 10.06718,1.169679 z m 82.06989,7.273592 c -5.10061,-0.80079 -7.75298,-2.03972 -10.77113,-5.0312 -3.9887,-3.953465 -5.94099,-9.037969 -5.9637,-15.53178 -0.0448,-12.811497 8.18315,-21.933175 19.78417,-21.933175 10.64021,0 18.06415,7.299076 19.72135,19.389629 l 0.56986,4.157541 h -15.13846 -15.13846 l 0.59439,2.943396 c 0.80794,4.000909 3.2304,7.189222 6.21927,8.185512 3.51168,1.170557 8.54637,0.0018 11.13299,-2.585153 1.74496,-1.744963 3.14374,-2.204133 6.71452,-2.204133 h 4.5104 l -1.49097,2.943396 c -0.82003,1.618868 -2.15405,3.698327 -2.96451,4.621027 -3.47527,3.95656 -11.0401,6.10305 -17.77972,5.04494 z m 11.81625,-27.779174 c -1.18894,-4.882121 -4.70442,-6.97825 -11.18025,-6.666286 -2.52584,0.121679 -6.16246,3.848253 -6.74886,6.915788 l -0.42841,2.241064 h 9.48202 9.48203 z M 186.56604,77.433961 V 48.905659 h 8.53592 8.53592 l 6.61847,19.924528 c 3.64016,10.958491 6.86422,19.924528 7.16459,19.924528 0.30037,0 3.35656,-8.966037 6.79153,-19.924528 l 6.2454,-19.924528 h 8.39371 8.3937 v 28.528302 28.528299 h -5.41696 -5.41696 L 236.16794,85.358489 235.92453,64.754716 232.4024,75.16981 c -1.93717,5.728302 -5.13807,14.999999 -7.11311,20.603773 l -3.59097,10.188677 -4.66048,-0.006 -4.66048,-0.006 -6.79246,-19.917478 C 201.84906,75.078167 198.48679,66.115 198.11321,66.114633 c -0.37359,-3.67e-4 -0.67925,8.965371 -0.67925,19.923861 V 105.96226 H 192 186.56604 Z m 119.54717,8.150943 V 65.207546 h 4.98113 c 4.93081,0 4.98113,0.02744 4.98113,2.716981 0,3.064584 1.29434,3.563882 2.6538,1.023712 2.50962,-4.689276 13.78435,-6.203279 19.17453,-2.574809 5.21017,3.507292 5.76062,5.631156 6.09407,23.513361 l 0.29976,16.075469 h -5.50731 -5.5073 V 91.430534 c 0,-14.22121 -0.0475,-14.579239 -2.22299,-16.754721 -2.40083,-2.400828 -6.53393,-2.931792 -9.68681,-1.244426 -3.41351,1.826855 -4.39209,6.24342 -4.39209,19.82254 v 12.708333 h -5.43396 -5.43396 z M 441.96226,77.433961 V 48.905659 h 8.08309 8.08309 l 6.61847,19.924528 c 3.64017,10.958491 6.86588,19.924528 7.16828,19.924528 0.30239,0 3.36594,-8.963539 6.80787,-19.918974 l 6.25807,-19.918975 8.37736,-0.0056 8.37736,-0.0056 v 28.528302 28.528302 h -5.41697 -5.41695 l -0.24342,-20.603774 -0.24342,-20.603773 -6.86792,20.377358 -6.86793,20.377359 h -4.90565 -4.90567 l -6.79245,-19.819694 -6.79245,-19.819693 -0.24374,20.046109 -0.24374,20.046108 h -5.41664 -5.41664 z m 119.72297,9.735848 c -3.51079,-10.335848 -6.66035,-19.505659 -6.99905,-20.377358 -0.54516,-1.403044 0.0152,-1.584905 4.88387,-1.584905 h 5.4997 l 3.13855,10.188679 c 1.72621,5.603773 3.6387,11.920754 4.24999,14.037735 0.61129,2.116981 1.38005,3.849057 1.70835,3.849057 0.32829,0 1.25523,-2.139623 2.05984,-4.754717 0.80463,-2.615094 2.74466,-8.932075 4.3112,-14.037736 l 2.84826,-9.283018 h 4.9108 c 3.02674,0 4.9108,0.389941 4.9108,1.016383 0,0.55901 -2.87864,9.728821 -6.39697,20.377358 l -6.39698,19.360973 h -6.17257 -6.17256 z m 83.14495,-1.584905 V 65.207546 h 4.98114 c 4.93081,0 4.98113,0.02744 4.98113,2.716981 0,2.859778 1.25532,3.660888 2.13684,1.363674 1.73393,-4.518543 12.54196,-6.487585 18.66254,-3.400003 5.93157,2.992232 6.7828,5.854307 7.13764,23.998593 l 0.31439,16.075469 h -5.46098 -5.46098 l -0.28737,-15.025392 c -0.27794,-14.532426 -0.35751,-15.082123 -2.42543,-16.754713 -2.98297,-2.412708 -7.60897,-2.216611 -10.7171,0.454298 l -2.54106,2.183623 -0.28873,14.571089 -0.28874,14.571095 h -5.37164 -5.37165 z"
         id="path2271" />
      <path
         style="fill:#ead9f0;stroke-width:0.90566"
         d="m 151.31678,200.5283 c 0.0435,-1.05505 0.25806,-1.26964 0.54717,-0.54717 0.26162,0.65377 0.22945,1.4349 -0.0715,1.73585 -0.30095,0.30094 -0.51499,-0.23397 -0.47567,-1.18868 z m 429.72257,-0.64284 c 0.34011,-0.89318 0.84652,-1.39582 1.12536,-1.11698 0.27884,0.27885 5.8e-4,1.00963 -0.61837,1.62397 -0.89445,0.88778 -0.99847,0.78376 -0.50699,-0.50699 z m 79.25856,-0.26282 c 0.0435,-1.05505 0.25806,-1.26964 0.54717,-0.54717 0.26161,0.65377 0.22945,1.4349 -0.0715,1.73585 -0.30094,0.30094 -0.51499,-0.23397 -0.47567,-1.18868 z m -328.82621,-0.7193 c 0,-0.18806 0.7132,-0.90127 1.5849,-1.58491 1.43643,-1.12652 1.46847,-1.09449 0.34194,0.34194 -1.18312,1.50861 -1.92684,1.98836 -1.92684,1.24297 z m 215.54716,0 c 0,-0.18806 0.71321,-0.90127 1.58491,-1.58491 1.43643,-1.12652 1.46847,-1.09449 0.34194,0.34194 -1.18313,1.50861 -1.92685,1.98836 -1.92685,1.24297 z m -142.11717,-1.99768 c 0.0435,-1.05505 0.25806,-1.26965 0.54716,-0.54717 0.26162,0.65377 0.22945,1.4349 -0.0714,1.73585 -0.30095,0.30094 -0.515,-0.23397 -0.47568,-1.18868 z m 168.55788,-0.83019 c 0.0185,-1.49434 0.22144,-1.99602 0.45106,-1.11484 0.22962,0.88118 0.21452,2.10382 -0.0336,2.71698 -0.24809,0.61316 -0.43596,-0.1078 -0.4175,-1.60214 z m 62.38551,0.83019 c 0.0435,-1.05505 0.25806,-1.26965 0.54717,-0.54717 0.26161,0.65377 0.22945,1.4349 -0.0715,1.73585 -0.30094,0.30094 -0.51499,-0.23397 -0.47567,-1.18868 z M 468.29791,196 c 0.0435,-1.05505 0.25806,-1.26965 0.54717,-0.54717 0.26162,0.65377 0.22945,1.4349 -0.0715,1.73585 -0.30094,0.30094 -0.51499,-0.23397 -0.47567,-1.18868 z m 90.56604,0 c 0.0435,-1.05505 0.25806,-1.26965 0.54717,-0.54717 0.26161,0.65377 0.22944,1.4349 -0.0715,1.73585 -0.30094,0.30094 -0.515,-0.23397 -0.47567,-1.18868 z m 48.97715,-1.28302 c 0,-1.24529 0.20557,-1.75472 0.45681,-1.13208 0.25124,0.62264 0.25124,1.64151 0,2.26415 -0.25124,0.62264 -0.45681,0.11321 -0.45681,-1.13207 z m 56.98511,0.37736 c 0.0435,-1.05505 0.25806,-1.26965 0.54717,-0.54717 0.26162,0.65376 0.22945,1.4349 -0.0715,1.73585 -0.30094,0.30094 -0.51499,-0.23397 -0.47567,-1.18868 z m -20.6733,-3.54717 c 0.0101,-1.99246 0.19553,-2.70091 0.41215,-1.57435 0.21663,1.12656 0.2084,2.75675 -0.0183,3.62264 -0.22668,0.86589 -0.40393,-0.0559 -0.39387,-2.04829 z m -471.84905,-0.90566 c 0.0101,-1.99246 0.19552,-2.70091 0.41215,-1.57435 0.21662,1.12656 0.2084,2.75675 -0.0183,3.62264 -0.22667,0.86589 -0.40392,-0.0559 -0.39387,-2.04829 z M 376.89771,192 c 0,-1.24529 0.20557,-1.75472 0.45681,-1.13208 0.25123,0.62264 0.25123,1.64151 0,2.26415 -0.25124,0.62264 -0.45681,0.11321 -0.45681,-1.13207 z m -59.74002,-1.35849 c 0.0185,-1.49434 0.22143,-1.99603 0.45105,-1.11485 0.22962,0.88119 0.21453,2.10383 -0.0336,2.71699 -0.24808,0.61316 -0.43595,-0.1078 -0.4175,-1.60214 z m 144.87209,0.45283 c 0,-1.24529 0.20557,-1.75472 0.45681,-1.13208 0.25124,0.62264 0.25124,1.64151 0,2.26415 -0.25124,0.62264 -0.45681,0.11321 -0.45681,-1.13207 z m -55.31677,-4.15094 c 0.0435,-1.05505 0.25806,-1.26965 0.54716,-0.54718 0.26162,0.65377 0.22945,1.4349 -0.0715,1.73585 -0.30095,0.30095 -0.515,-0.23396 -0.47567,-1.18867 z m 48.29528,-0.60378 -1.72527,-2.03774 2.03773,1.72528 c 1.12076,0.94889 2.03774,1.86587 2.03774,2.03773 0,0.72476 -0.72887,0.18969 -2.3502,-1.72527 z m -121.49688,-2.03774 c 0.01,-1.99245 0.19552,-2.7009 0.41214,-1.57434 0.21663,1.12656 0.20841,2.75675 -0.0183,3.62264 -0.22668,0.86589 -0.40392,-0.0559 -0.39387,-2.0483 z m 58.63953,2.82787 c 0,-0.18806 0.71321,-0.90126 1.58491,-1.5849 1.43643,-1.12653 1.46846,-1.09449 0.34194,0.34194 -1.18313,1.5086 -1.92685,1.98836 -1.92685,1.24296 z m 157.79502,-3.2807 c 0,-1.74339 0.18638,-2.4566 0.41418,-1.5849 0.2278,0.8717 0.2278,2.29811 0,3.16981 -0.2278,0.8717 -0.41418,0.15849 -0.41418,-1.58491 z m -353.27466,0 c 0,-1.24528 0.20556,-1.75471 0.4568,-1.13207 0.25124,0.62264 0.25124,1.64151 0,2.26415 -0.25124,0.62264 -0.4568,0.11321 -0.4568,-1.13208 z m 261.47732,-0.67924 c -1.12652,-1.43643 -1.09449,-1.46847 0.34194,-0.34194 0.8717,0.68363 1.58491,1.39684 1.58491,1.5849 0,0.7454 -0.74372,0.26564 -1.92685,-1.24296 z m -94.90731,-0.75472 c 0.0435,-1.05505 0.25806,-1.26964 0.54716,-0.54717 0.26162,0.65377 0.22945,1.4349 -0.0715,1.73585 -0.30094,0.30094 -0.515,-0.23397 -0.47567,-1.18868 z m -59.70209,-1.28302 c 0,-1.24528 0.20557,-1.75472 0.45681,-1.13207 0.25123,0.62264 0.25123,1.64151 0,2.26415 -0.25124,0.62264 -0.45681,0.1132 -0.45681,-1.13208 z m 220.07547,-0.90566 c 0,-1.24528 0.20557,-1.75472 0.45681,-1.13207 0.25123,0.62264 0.25123,1.64151 0,2.26415 -0.25124,0.62264 -0.45681,0.1132 -0.45681,-1.13208 z m 101.7438,-0.90566 c 0.90157,-0.99623 1.843,-1.81132 2.09205,-1.81132 0.24906,0 -0.28482,0.81509 -1.18639,1.81132 -0.90158,0.99623 -1.843,1.81132 -2.09206,1.81132 -0.24906,0 0.28482,-0.81509 1.1864,-1.81132 z m 25.81132,1.46938 c 0,-0.18806 0.7132,-0.90127 1.5849,-1.58491 1.43643,-1.12652 1.46847,-1.09449 0.34194,0.34195 -1.18312,1.5086 -1.92684,1.98836 -1.92684,1.24296 z m -499.85303,-1.99768 c 0.0435,-1.05505 0.25806,-1.26964 0.54717,-0.54717 0.26162,0.65377 0.22945,1.4349 -0.0715,1.73585 -0.30095,0.30094 -0.51499,-0.23397 -0.47567,-1.18868 z m 169.28699,1.09202 c 0,-0.18806 0.71321,-0.90127 1.58491,-1.58491 1.43643,-1.12652 1.46846,-1.09449 0.34194,0.34195 -1.18313,1.5086 -1.92685,1.98835 -1.92685,1.24296 z m 30.08906,-1.9875 c -0.10008,-1.20937 -0.0303,-2.19886 0.15508,-2.19886 0.67323,0 1.26687,3.63138 0.65542,4.00928 -0.34568,0.21364 -0.7104,-0.60105 -0.8105,-1.81042 z m 139.34093,0.89548 c 0.0435,-1.05505 0.25806,-1.26964 0.54717,-0.54717 0.26161,0.65377 0.22945,1.4349 -0.0715,1.73585 -0.30094,0.30094 -0.51499,-0.23397 -0.47567,-1.18868 z m 42.56604,0 c 0.0435,-1.05505 0.25806,-1.26964 0.54716,-0.54717 0.26162,0.65377 0.22945,1.4349 -0.0715,1.73585 -0.30094,0.30094 -0.515,-0.23397 -0.47567,-1.18868 z m -338.90401,-2.86793 c -1.12652,-1.43643 -1.09449,-1.46846 0.34194,-0.34194 0.8717,0.68364 1.58491,1.39685 1.58491,1.58491 0,0.74539 -0.74372,0.26564 -1.92685,-1.24297 z m 153.24363,0.15095 c 0.0435,-1.05505 0.25806,-1.26964 0.54717,-0.54717 0.26162,0.65377 0.22945,1.4349 -0.0715,1.73585 -0.30094,0.30094 -0.51499,-0.23397 -0.47567,-1.18868 z M 240.0715,175.16981 c 0.0435,-1.05505 0.25806,-1.26964 0.54716,-0.54717 0.26162,0.65377 0.22945,1.4349 -0.0714,1.73585 -0.30094,0.30094 -0.515,-0.23397 -0.47567,-1.18868 z m 209.20755,-2.71698 c 0.0435,-1.05505 0.25806,-1.26965 0.54716,-0.54717 0.26162,0.65377 0.22945,1.4349 -0.0715,1.73585 -0.30094,0.30094 -0.51499,-0.23397 -0.47567,-1.18868 z m -1.43,-6.71698 c 0.90158,-0.99623 1.843,-1.81133 2.09206,-1.81133 0.24906,0 -0.28482,0.8151 -1.1864,1.81133 -0.90157,0.99622 -1.843,1.81132 -2.09205,1.81132 -0.24906,0 0.28482,-0.8151 1.18639,-1.81132 z m -47.77358,-44.97716 c 0.62264,-0.25124 1.64151,-0.25124 2.26415,0 0.62264,0.25124 0.11321,0.4568 -1.13208,0.4568 -1.24528,0 -1.75471,-0.20556 -1.13207,-0.4568 z m 14.26415,-3.02284 c 0.90158,-0.99623 1.843,-1.81132 2.09206,-1.81132 0.24905,0 -0.28482,0.81509 -1.1864,1.81132 -0.90158,0.99622 -1.843,1.81132 -2.09206,1.81132 -0.24905,0 0.28482,-0.8151 1.1864,-1.81132 z M 89.660377,109.13207 c 1.169887,-1.24528 2.330835,-2.26415 2.579891,-2.26415 0.249057,0 -0.504344,1.01887 -1.674231,2.26415 -1.169882,1.24529 -2.330833,2.26415 -2.579889,2.26415 -0.249057,0 0.504347,-1.01886 1.674229,-2.26415 z m 189.113203,-1.97715 c 0.65377,-0.26162 1.43491,-0.22945 1.73586,0.0714 0.30094,0.30095 -0.23397,0.515 -1.18868,0.47567 -1.05505,-0.0435 -1.26965,-0.25805 -0.54718,-0.54716 z m 95.09434,0 c 0.65377,-0.26162 1.43491,-0.22945 1.73585,0.0714 0.30095,0.30095 -0.23396,0.515 -1.18867,0.47567 -1.05505,-0.0435 -1.26965,-0.25805 -0.54718,-0.54716 z m 147.62264,0 c 0.65377,-0.26162 1.43491,-0.22945 1.73585,0.0714 0.30095,0.30095 -0.23396,0.515 -1.18867,0.47567 -1.05505,-0.0435 -1.26965,-0.25805 -0.54718,-0.54716 z m 3.56604,0.0188 c 0.62264,-0.25123 1.64151,-0.25123 2.26415,0 0.62264,0.25124 0.11321,0.45681 -1.13207,0.45681 -1.24529,0 -1.75472,-0.20557 -1.13208,-0.45681 z m 94.18868,0 c 0.62264,-0.25123 1.64151,-0.25123 2.26415,0 0.62264,0.25124 0.11321,0.45681 -1.13208,0.45681 -1.24528,0 -1.75471,-0.20557 -1.13207,-0.45681 z m -427.4717,-0.95192 5.66038,-0.34602 V 85.994491 c 0,-10.934722 0.30566,-19.881796 0.67925,-19.882386 0.37358,-5.91e-4 0.47547,9.067334 0.22641,20.150943 l -0.45283,20.152042 -5.88679,0.0764 -5.88679,0.0764 5.66037,-0.34604 z m 23.09434,-0.003 c 1.36981,-0.20752 3.61132,-0.20752 4.98114,0 1.36981,0.2075 0.24905,0.37729 -2.49057,0.37729 -2.73962,0 -3.86038,-0.16979 -2.49057,-0.37729 z m 24,-0.006 c 1.61887,-0.2009 4.26793,-0.2009 5.8868,0 1.61886,0.2009 0.29434,0.36528 -2.9434,0.36528 -3.23774,0 -4.56226,-0.16438 -2.9434,-0.36528 z m 69.73585,0 c 1.61887,-0.2009 4.26793,-0.2009 5.88679,0 1.61887,0.2009 0.29434,0.36528 -2.94339,0.36528 -3.23774,0 -4.56227,-0.16438 -2.9434,-0.36528 z m 27.16981,0 c 1.61887,-0.2009 4.26793,-0.2009 5.8868,0 1.61886,0.2009 0.29433,0.36528 -2.9434,0.36528 -3.23774,0 -4.56227,-0.16438 -2.9434,-0.36528 z m 105.69403,-0.48576 c -0.2408,-0.6275 -0.32378,-13.770895 -0.18442,-29.207547 l 0.2534,-28.066644 0.21283,28.711501 0.21284,28.7115 5.66038,0.32154 5.66038,0.32155 -5.6888,0.1745 c -3.8751,0.11887 -5.82839,-0.18925 -6.12661,-0.96641 z m 25.52994,0.445 c -0.23655,-0.38276 1.2677,-0.56497 3.34278,-0.40492 6.09453,0.47006 6.8362,0.88297 1.78859,0.99577 -2.5857,0.0578 -4.89481,-0.2081 -5.13137,-0.59085 z m 26.36094,0.0408 c 1.61887,-0.2009 4.26792,-0.2009 5.88679,0 1.61887,0.2009 0.29434,0.36528 -2.9434,0.36528 -3.23773,0 -4.56226,-0.16438 -2.94339,-0.36528 z m 48,0 c 1.61887,-0.2009 4.26792,-0.2009 5.88679,0 1.61887,0.2009 0.29434,0.36528 -2.9434,0.36528 -3.23773,0 -4.56226,-0.16438 -2.94339,-0.36528 z m 29.43396,-0.005 c 1.86792,-0.19539 4.92453,-0.19539 6.79245,0 1.86793,0.19539 0.33962,0.35525 -3.39622,0.35525 -3.73585,0 -5.26416,-0.15986 -3.39623,-0.35525 z m 76.5283,0.005 c 1.61887,-0.2009 4.26793,-0.2009 5.88679,0 1.61887,0.2009 0.29434,0.36528 -2.94339,0.36528 -3.23774,0 -4.56227,-0.16438 -2.9434,-0.36528 z m 27.16981,0 c 1.61887,-0.2009 4.26793,-0.2009 5.88679,0 1.61887,0.2009 0.29434,0.36528 -2.94339,0.36528 -3.23774,0 -4.56227,-0.16438 -2.9434,-0.36528 z M 82.415094,105.62032 c 0,-0.18806 0.713207,-0.90127 1.584905,-1.5849 1.436429,-1.12653 1.468462,-1.0945 0.341937,0.34194 -1.183127,1.5086 -1.926842,1.98836 -1.926842,1.24296 z m 209.207546,-3.73353 c 1.16989,-1.24528 2.33083,-2.264151 2.57989,-2.264151 0.24906,0 -0.50434,1.018871 -1.67423,2.264151 -1.16989,1.24528 -2.33083,2.26415 -2.57989,2.26415 -0.24906,0 0.50434,-1.01887 1.67423,-2.26415 z m 245.88679,1.35849 c -0.30785,-0.49811 -0.12813,-0.90566 0.39938,-0.90566 0.52751,0 0.95911,0.40755 0.95911,0.90566 0,0.49811 -0.17972,0.90566 -0.39938,0.90566 -0.21966,0 -0.65126,-0.40755 -0.95911,-0.90566 z m -267.25586,-6.566037 -1.72527,-2.037736 2.03774,1.725274 c 1.91496,1.621332 2.45002,2.350198 1.72527,2.350198 -0.17186,0 -1.08884,-0.916981 -2.03774,-2.037736 z M 134.03774,90.113206 c 1.68976,-1.743397 3.27607,-3.169812 3.52512,-3.169812 0.24906,0 -0.9297,1.426415 -2.61946,3.169812 -1.68977,1.743396 -3.27608,3.169811 -3.52513,3.169811 -0.24906,0 0.9297,-1.426415 2.61947,-3.169811 z m 217.42999,-0.07547 c 0.0435,-1.055043 0.25805,-1.269645 0.54716,-0.54717 0.26162,0.653773 0.22945,1.434901 -0.0715,1.735852 -0.30094,0.300942 -0.51499,-0.233968 -0.47567,-1.188682 z M 77.347913,88.5283 l -1.725272,-2.037736 2.037736,1.725272 c 1.914969,1.62133 2.450029,2.3502 1.725272,2.3502 -0.171855,0 -1.088837,-0.916981 -2.037736,-2.037736 z m 530.364067,0.90566 c -0.0127,-1.454856 1.23089,-1.568355 15.15594,-1.383208 l 15.16981,0.201697 -14.45192,0.275084 c -10.14738,0.193149 -14.66161,0.605141 -15.15594,1.383209 -0.48977,0.770892 -0.70824,0.625789 -0.71789,-0.476782 z M 287.32273,85.584904 c 0.0101,-1.992453 0.19552,-2.700908 0.41215,-1.574347 0.21662,1.126563 0.2084,2.756752 -0.0183,3.622642 -0.22668,0.865891 -0.40392,-0.05584 -0.39387,-2.048295 z m 89.14755,2.504226 14.65897,-0.284387 0.41551,-2.46841 c 0.388,-2.304891 0.40685,-2.288424 0.28444,0.248571 l -0.13109,2.716981 -14.9434,0.03582 -14.94339,0.03582 14.65896,-0.284389 z m 220.5029,-2.051396 c 0,-1.245283 0.20557,-1.754717 0.45681,-1.132075 0.25123,0.622641 0.25123,1.641509 0,2.26415 -0.25124,0.622642 -0.45681,0.113208 -0.45681,-1.132075 z M 45.283019,85.695797 c 0,-0.188065 0.713207,-0.901273 1.584905,-1.584905 1.436428,-1.126525 1.468462,-1.094492 0.341937,0.341936 -1.183127,1.508602 -1.926842,1.988359 -1.926842,1.242969 z M 75.24131,84.603772 c 0.04345,-1.055043 0.25806,-1.269645 0.54717,-0.54717 0.261619,0.653774 0.229444,1.434906 -0.0715,1.735849 -0.300943,0.300943 -0.514995,-0.233963 -0.475671,-1.188679 z m 181.13208,-2.716981 c 0.0435,-1.055043 0.25806,-1.269645 0.54716,-0.54717 0.26162,0.653774 0.22945,1.434906 -0.0715,1.735849 -0.30094,0.300943 -0.51499,-0.233963 -0.47567,-1.188679 z m 380.37735,-0.90566 c 0.0435,-1.055043 0.25806,-1.269646 0.54717,-0.54717 0.26162,0.653773 0.22945,1.434905 -0.0715,1.735849 -0.30094,0.300943 -0.51499,-0.233963 -0.47567,-1.188679 z M 51.622641,79.356175 c 0,-0.188066 0.713208,-0.901273 1.584906,-1.584906 1.436428,-1.126524 1.468461,-1.094491 0.341936,0.341937 -1.183126,1.508602 -1.926842,1.988358 -1.926842,1.242969 z m 25.358491,-0.90566 c 0,-0.188066 0.713207,-0.901274 1.584905,-1.584906 1.436428,-1.126525 1.468462,-1.094491 0.341937,0.341937 -1.183127,1.508601 -1.926842,1.988358 -1.926842,1.242969 z M 514.18868,77.23164 c 1.61886,-0.200899 4.26792,-0.200899 5.88679,0 1.61887,0.2009 0.29434,0.365272 -2.9434,0.365272 -3.23773,0 -4.56226,-0.164372 -2.94339,-0.365272 z m 167.84508,-1.684471 c 0.0435,-1.055043 0.25806,-1.269646 0.54717,-0.547171 0.26161,0.653774 0.22944,1.434906 -0.0715,1.73585 -0.30094,0.300943 -0.515,-0.233963 -0.47567,-1.188679 z m -47.56044,-1.017545 c -0.49149,-1.290746 -0.38746,-1.394773 0.50698,-0.506984 0.61895,0.61434 0.89721,1.345124 0.61837,1.623965 -0.27884,0.278842 -0.78525,-0.2238 -1.12535,-1.116981 z m -86.47729,-0.793776 c 0.0435,-1.055043 0.25806,-1.269645 0.54716,-0.54717 0.26162,0.653773 0.22945,1.434905 -0.0715,1.735849 -0.30094,0.300943 -0.51499,-0.233963 -0.47567,-1.188679 z m -24.52434,0.186365 c 0,-0.188066 0.71321,-0.901274 1.58491,-1.584906 1.43643,-1.126524 1.46847,-1.094491 0.34194,0.341937 -1.18313,1.508602 -1.92685,1.988358 -1.92685,1.242969 z M 357.28302,69.735848 c 0.90157,-0.996227 1.843,-1.811321 2.09205,-1.811321 0.24906,0 -0.28482,0.815094 -1.18639,1.811321 -0.90158,0.996226 -1.843,1.81132 -2.09206,1.81132 -0.24906,0 0.28482,-0.815094 1.1864,-1.81132 z m 172.35849,1.192651 c 0.65377,-0.261619 1.43491,-0.229444 1.73585,0.0715 0.30094,0.300944 -0.23397,0.514996 -1.18868,0.475671 -1.05505,-0.04345 -1.26965,-0.25806 -0.54717,-0.54717 z M 316.21116,67.698112 c 0.12733,-2.761755 0.15908,-2.788752 0.51447,-0.437475 0.22846,1.511437 0.76926,2.264587 1.36273,1.897803 0.58763,-0.363176 0.72367,-0.186968 0.33774,0.437476 -1.23077,1.991436 -2.35002,1.032437 -2.21494,-1.897804 z m 68.57897,1.35849 c -1.12652,-1.436428 -1.09449,-1.468461 0.34194,-0.341936 1.50861,1.183126 1.98836,1.926842 1.24297,1.926842 -0.18806,0 -0.90127,-0.713208 -1.58491,-1.584906 z m 160.30189,-0.90566 c -1.12653,-1.436428 -1.09449,-1.468461 0.34194,-0.341937 0.8717,0.683633 1.5849,1.39684 1.5849,1.584906 0,0.745389 -0.74371,0.265633 -1.92684,-1.242969 z m -205.58491,-0.90566 c -1.12652,-1.436428 -1.09449,-1.468462 0.34194,-0.341937 0.8717,0.683632 1.58491,1.39684 1.58491,1.584906 0,0.745389 -0.74372,0.265633 -1.92685,-1.242969 z m 288.90566,0 c -1.12652,-1.436428 -1.09449,-1.468462 0.34194,-0.341937 1.50861,1.183127 1.98836,1.926842 1.24297,1.926842 -0.18806,0 -0.90127,-0.713207 -1.58491,-1.584905 z m 49.81132,0 c -1.12652,-1.436428 -1.09449,-1.468462 0.34194,-0.341937 1.50861,1.183127 1.98836,1.926842 1.24297,1.926842 -0.18806,0 -0.90127,-0.713207 -1.58491,-1.584905 z M 83.773584,52.528301 c 0.901573,-0.996227 1.842997,-1.811321 2.092053,-1.811321 0.249057,0 -0.28482,0.815094 -1.186392,1.811321 -0.901572,0.996226 -1.842996,1.811321 -2.092053,1.811321 -0.249057,0 0.28482,-0.815095 1.186392,-1.811321 z"
         id="path2269" />
      <path
         style="fill:#cea1dc;stroke-width:0.90566"
         d="m 147.62264,212.48824 c 0,-0.18806 0.71321,-0.90126 1.58491,-1.5849 1.43643,-1.12653 1.46846,-1.09449 0.34194,0.34194 -1.18313,1.5086 -1.92685,1.98836 -1.92685,1.24296 z m 68.76164,-14.38151 c 1.20759,-1.36625 2.24161,-2.48409 2.29784,-2.48409 0.0562,0 0.14742,0.91698 0.20266,2.03773 0.0553,1.12076 -0.10409,1.50339 -0.35403,0.8503 -0.35008,-0.91473 -0.90088,-0.81221 -2.39826,0.44635 -1.54986,1.30267 -1.49882,1.13033 0.25179,-0.85029 z m 327.9176,-1.92037 c 0,-0.18806 0.71321,-0.90127 1.58491,-1.58491 1.43643,-1.12652 1.46846,-1.09449 0.34194,0.34194 -1.18313,1.50861 -1.92685,1.98836 -1.92685,1.24297 z m -86.87189,-4.71466 c 0.0435,-1.05505 0.25806,-1.26965 0.54716,-0.54718 0.26162,0.65377 0.22945,1.43491 -0.0714,1.73586 -0.30095,0.30094 -0.515,-0.23397 -0.47567,-1.18868 z m -89.66038,-10.86793 c 0.0435,-1.05505 0.25806,-1.26964 0.54717,-0.54717 0.26161,0.65377 0.22945,1.4349 -0.0715,1.73585 -0.30094,0.30094 -0.51499,-0.23397 -0.47567,-1.18868 z m 28.14697,-0.37736 c 0,-1.24528 0.20556,-1.75472 0.4568,-1.13207 0.25124,0.62264 0.25124,1.64151 0,2.26415 -0.25124,0.62264 -0.4568,0.1132 -0.4568,-1.13208 z m -43.6147,0.56372 c 0,-0.18806 0.71321,-0.90127 1.58491,-1.58491 1.43643,-1.12652 1.46847,-1.09449 0.34194,0.34195 -1.18313,1.5086 -1.92685,1.98836 -1.92685,1.24296 z m 156.67925,0 c 0,-0.18806 0.71321,-0.90127 1.5849,-1.58491 1.43644,-1.12652 1.46847,-1.09449 0.34195,0.34195 -1.18313,1.5086 -1.92685,1.98836 -1.92685,1.24296 z M 240.0715,177.88679 c 0.0435,-1.05505 0.25806,-1.26964 0.54716,-0.54717 0.26162,0.65377 0.22945,1.4349 -0.0714,1.73585 -0.30094,0.30094 -0.515,-0.23397 -0.47567,-1.18868 z m 34.34359,-0.0755 c 0,-0.83018 0.27259,-1.23684 0.60575,-0.90367 0.33317,0.33315 1.45392,-0.10544 2.49057,-0.97466 1.37286,-1.15114 1.28845,-0.90567 -0.31079,0.90368 -2.56832,2.90578 -2.78553,2.98178 -2.78553,0.97465 z m 232.39518,0.75473 c -0.25655,-0.4151 0.10902,-0.75473 0.81237,-0.75473 0.70334,0 1.06891,0.33963 0.81237,0.75473 -0.25654,0.41509 -0.62211,0.75471 -0.81237,0.75471 -0.19026,0 -0.55583,-0.33962 -0.81237,-0.75471 z m -189.82914,-0.49289 c 0,-0.18806 0.71321,-0.90127 1.58491,-1.58491 1.43643,-1.12652 1.46846,-1.09449 0.34194,0.34194 -1.18313,1.50861 -1.92685,1.98836 -1.92685,1.24297 z m 221.43396,-1.46938 c 0.90158,-0.99623 1.843,-1.81132 2.09206,-1.81132 0.24905,0 -0.28482,0.81509 -1.1864,1.81132 -0.90157,0.99623 -1.843,1.81132 -2.09206,1.81132 -0.24905,0 0.28483,-0.81509 1.1864,-1.81132 z m 82.86793,1.46938 c 0,-0.18806 0.7132,-0.90127 1.5849,-1.58491 1.43643,-1.12652 1.46847,-1.09449 0.34194,0.34194 -1.18313,1.50861 -1.92684,1.98836 -1.92684,1.24297 z m -88.68322,-1.99768 c 0.0435,-1.05505 0.25806,-1.26964 0.54716,-0.54717 0.26162,0.65377 0.22945,1.4349 -0.0715,1.73585 -0.30094,0.30094 -0.515,-0.23397 -0.47567,-1.18868 z m -87.77756,-3.09434 c 0,-1.24528 0.20556,-1.75472 0.4568,-1.13208 0.25124,0.62264 0.25124,1.64151 0,2.26415 -0.25124,0.62265 -0.4568,0.11321 -0.4568,-1.13207 z m -46.87328,-52.88589 c -0.26662,-0.69479 -0.34558,-2.83441 -0.17548,-4.75472 0.28654,-3.2348 0.34091,-3.1419 0.7396,1.26381 0.43923,4.85375 0.29688,5.73463 -0.56412,3.49091 z m 3.08877,-8.41202 c 0.65377,-0.26162 1.43491,-0.22945 1.73586,0.0715 0.30094,0.30095 -0.23397,0.51499 -1.18868,0.47567 -1.05505,-0.0435 -1.26965,-0.25806 -0.54718,-0.54717 z M 371.15094,99.003974 c 0.65377,-0.261618 1.43491,-0.229449 1.73585,0.07146 0.30095,0.300951 -0.23397,0.514995 -1.18868,0.475671 -1.05505,-0.04347 -1.26964,-0.258059 -0.54717,-0.547163 z M 298.03376,87.320753 c 0.0435,-1.055043 0.25806,-1.269645 0.54717,-0.54717 0.26162,0.653774 0.22945,1.434906 -0.0715,1.735849 -0.30094,0.300943 -0.51499,-0.233962 -0.47567,-1.188679 z m -21.0715,-23.637537 c 0.65377,-0.261619 1.43491,-0.229443 1.73585,0.0715 0.30095,0.300944 -0.23396,0.514996 -1.18867,0.475671 -1.05505,-0.04345 -1.26965,-0.25806 -0.54718,-0.54717 z m 52.5283,0 c 0.65377,-0.261619 1.43491,-0.229443 1.73586,0.0715 0.30094,0.300944 -0.23397,0.514996 -1.18868,0.475671 -1.05505,-0.04345 -1.26965,-0.25806 -0.54718,-0.54717 z m 200.54717,-0.0056 c 0.8717,-0.227798 2.29812,-0.227798 3.16981,0 0.8717,0.227799 0.15849,0.414179 -1.5849,0.414179 -1.7434,0 -2.45661,-0.18638 -1.58491,-0.414179 z m 138.16981,0.0056 c 0.65377,-0.261619 1.43491,-0.229443 1.73586,0.0715 0.30094,0.300944 -0.23397,0.514996 -1.18868,0.475671 -1.05505,-0.04345 -1.26965,-0.25806 -0.54718,-0.54717 z"
         id="path2267" />
      <path
         style="fill:#be84d2;stroke-width:0.90566"
         d="m 664.82621,199.62264 c 0.0435,-1.05505 0.25806,-1.26964 0.54717,-0.54717 0.26162,0.65377 0.22945,1.4349 -0.0715,1.73585 -0.30094,0.30094 -0.51499,-0.23397 -0.47567,-1.18868 z M 603.24131,196 c 0.0435,-1.05505 0.25806,-1.26965 0.54716,-0.54717 0.26162,0.65377 0.22945,1.4349 -0.0714,1.73585 -0.30095,0.30094 -0.515,-0.23397 -0.47567,-1.18868 z m -25.35849,-0.90566 c 0.0435,-1.05505 0.25806,-1.26965 0.54716,-0.54717 0.26162,0.65376 0.22945,1.4349 -0.0715,1.73585 -0.30095,0.30094 -0.515,-0.23397 -0.47567,-1.18868 z m -265.287,-4 c 0,-1.24529 0.20557,-1.75472 0.45681,-1.13208 0.25124,0.62264 0.25124,1.64151 0,2.26415 -0.25124,0.62264 -0.45681,0.11321 -0.45681,-1.13207 z m 304.36901,-0.90566 c 0,-1.7434 0.18638,-2.45661 0.41418,-1.58491 0.22779,0.8717 0.22779,2.29811 0,3.16981 -0.2278,0.8717 -0.41418,0.15849 -0.41418,-1.5849 z m -244.59542,0 c 0,-1.24529 0.20556,-1.75472 0.4568,-1.13208 0.25124,0.62264 0.25124,1.64151 0,2.26415 -0.25124,0.62264 -0.4568,0.11321 -0.4568,-1.13207 z m -34.38153,-5.8868 c 0.0185,-1.49434 0.22143,-1.99602 0.45105,-1.11484 0.22962,0.88118 0.21453,2.10382 -0.0336,2.71698 -0.24809,0.61316 -0.43596,-0.1078 -0.4175,-1.60214 z m -145.84489,-0.45283 c 0,-1.24528 0.20557,-1.75471 0.45681,-1.13207 0.25124,0.62264 0.25124,1.64151 0,2.26415 -0.25124,0.62264 -0.45681,0.11321 -0.45681,-1.13208 z m 362.29772,-0.45283 c 0.0185,-1.49434 0.22143,-1.99602 0.45105,-1.11484 0.22962,0.88118 0.21452,2.10382 -0.0336,2.71698 -0.24809,0.61316 -0.43596,-0.1078 -0.4175,-1.60214 z m -246.44468,-2.79245 c 0.0435,-1.05505 0.25806,-1.26964 0.54716,-0.54717 0.26162,0.65377 0.22945,1.4349 -0.0714,1.73585 -0.30095,0.30094 -0.515,-0.23397 -0.47568,-1.18868 z m 211.01886,0 c 0.0435,-1.05505 0.25806,-1.26964 0.54717,-0.54717 0.26162,0.65377 0.22945,1.4349 -0.0715,1.73585 -0.30094,0.30094 -0.51499,-0.23397 -0.47567,-1.18868 z m 121.42999,-0.37736 c 0,-1.24528 0.20556,-1.75472 0.4568,-1.13207 0.25124,0.62264 0.25124,1.64151 0,2.26415 -0.25124,0.62264 -0.4568,0.1132 -0.4568,-1.13208 z m -464.74677,-2.15326 c 0,-0.18806 0.71321,-0.90127 1.58491,-1.58491 1.43643,-1.12652 1.46846,-1.09449 0.34194,0.34194 -1.18313,1.50861 -1.92685,1.98836 -1.92685,1.24297 z m 60.15952,-91.582586 c 6.8e-4,-10.95849 0.13146,-15.317034 0.29062,-9.685653 0.15915,5.63138 0.15859,14.597421 -9e-4,19.924524 -0.15984,5.327115 -0.29006,0.71962 -0.28937,-10.238871 z m 11.7917,-9.056603 c 3.7e-4,-15.939623 0.1236,-22.332825 0.27385,-14.207117 0.15025,8.125708 0.14995,21.167217 -6.6e-4,28.981127 -0.15062,7.813919 -0.27355,1.165612 -0.27319,-14.77401 z m 254.49057,0 c 3.6e-4,-15.939623 0.12359,-22.332825 0.27384,-14.207117 0.15025,8.125708 0.14995,21.167217 -6.6e-4,28.981127 -0.15061,7.813919 -0.27354,1.165612 -0.27318,-14.77401 z m 7.81839,18.037738 c 0.0435,-1.055049 0.25806,-1.269645 0.54716,-0.547173 0.26162,0.653769 0.22945,1.434901 -0.0714,1.735852 -0.30094,0.300942 -0.515,-0.233968 -0.47567,-1.188679 z m -128.76283,-1.56125 c 0.40402,-0.402086 2.9324,-0.600108 5.61861,-0.44006 l 4.88404,0.291007 -5.61862,0.440051 c -3.09024,0.242038 -5.28805,0.111079 -4.88403,-0.290998 z m 248.46491,-0.370451 c 1.36981,-0.207514 3.61132,-0.207514 4.98114,0 1.36981,0.207505 0.24905,0.377289 -2.49057,0.377289 -2.73962,0 -3.86038,-0.169784 -2.49057,-0.377289 z m 1.46938,-24.483396 c -1.12652,-1.436428 -1.09449,-1.468461 0.34194,-0.341936 0.8717,0.683632 1.58491,1.39684 1.58491,1.584905 0,0.74539 -0.74372,0.265633 -1.92685,-1.242969 z m 23.78603,-0.860464 c -0.12212,-2.869627 -0.17467,-2.901422 -5.33088,-3.22498 l -5.20755,-0.32678 5.23597,-0.171247 c 5.62962,-0.18412 6.58257,0.554696 5.82691,4.517606 -0.31016,1.626623 -0.42907,1.446454 -0.52445,-0.794599 z M 308.61999,64.551186 c 1.62779,-0.201566 4.07307,-0.197406 5.43396,0.0092 1.36089,0.206649 0.0291,0.371566 -2.95961,0.366482 -2.98868,-0.0051 -4.10214,-0.174159 -2.47435,-0.375724 z m 87.81264,0.0027 c 1.60776,-0.200072 4.46059,-0.203359 6.33962,-0.0073 1.87903,0.196053 0.5636,0.359747 -2.9232,0.363766 -3.48679,0.004 -5.02418,-0.15639 -3.41642,-0.356461 z m 30.81265,-0.0015 c 1.61887,-0.200899 4.26792,-0.200899 5.88679,0 1.61887,0.2009 0.29434,0.365273 -2.94339,0.365273 -3.23774,0 -4.56227,-0.164373 -2.9434,-0.365273 z m 129.50943,0 c 1.61887,-0.200899 4.26793,-0.200899 5.8868,0 1.61886,0.2009 0.29434,0.365273 -2.9434,0.365273 -3.23774,0 -4.56226,-0.164373 -2.9434,-0.365273 z m 28.98114,0 c 1.61886,-0.200899 4.26792,-0.200899 5.88679,0 1.61887,0.2009 0.29434,0.365273 -2.9434,0.365273 -3.23773,0 -4.56226,-0.164373 -2.94339,-0.365273 z m -58.81132,-0.869179 c 0.65376,-0.261619 1.43491,-0.229443 1.73585,0.0715 0.30094,0.300944 -0.23397,0.514996 -1.18868,0.475671 -1.05505,-0.04345 -1.26965,-0.258059 -0.54717,-0.54717 z"
         id="path2265" />
      <path
         style="fill:#af66c8;stroke-width:0.90566"
         d="m 191.09434,198.90334 c 0,-0.18806 0.71321,-0.90127 1.5849,-1.58491 1.43644,-1.12652 1.46847,-1.09449 0.34195,0.34194 -1.18313,1.50861 -1.92685,1.98836 -1.92685,1.24297 z m 299.77358,-20.83019 c 0,-0.18806 0.71321,-0.90127 1.58491,-1.58491 1.43643,-1.12652 1.46846,-1.09449 0.34194,0.34194 -1.18313,1.50861 -1.92685,1.98836 -1.92685,1.24297 z m 147.50712,-3.05429 c -1.12653,-1.43643 -1.09449,-1.46846 0.34194,-0.34194 0.8717,0.68364 1.5849,1.39685 1.5849,1.58491 0,0.74539 -0.74372,0.26564 -1.92684,-1.24297 z M 344.51315,92.830187 c 9.1e-4,-7.471698 0.14155,-10.407788 0.31172,-6.524644 0.17017,3.883144 0.16914,9.996348 -0.003,13.584909 -0.17144,3.588548 -0.31067,0.411428 -0.30941,-7.060265 z m 145.25766,-5.974478 c -0.14375,-10.508603 0.0443,-19.29492 0.41787,-19.525147 0.37358,-0.230227 0.67924,8.367722 0.67924,19.106553 0,10.738829 -0.18803,19.525145 -0.41786,19.525145 -0.22982,0 -0.53548,-8.597948 -0.67925,-19.106551 z m 154.54205,-1.270805 c 6.4e-4,-11.456604 0.13043,-16.018515 0.28843,-10.137582 0.15799,5.880935 0.15747,15.254518 -9.1e-4,20.830188 -0.15863,5.57567 -0.2879,0.763997 -0.28726,-10.692606 z M 537.1996,88.754715 c 0,-1.245283 0.20556,-1.754717 0.4568,-1.132075 0.25124,0.622641 0.25124,1.641509 0,2.264151 -0.25124,0.622641 -0.4568,0.113207 -0.4568,-1.132076 z M 267.34637,85.584904 c 0.0185,-1.49434 0.22143,-1.996018 0.45105,-1.114839 0.22962,0.881178 0.21453,2.103819 -0.0336,2.716981 -0.24804,0.613161 -0.43591,-0.107803 -0.41745,-1.602142 z m 49.70626,-1.886792 c 0.0435,-1.055043 0.25806,-1.269645 0.54717,-0.54717 0.26161,0.653773 0.22944,1.434905 -0.0715,1.735849 -0.30094,0.300943 -0.515,-0.233963 -0.47567,-1.188679 z m 45.80128,-2.867925 c -0.23254,-0.373585 2.49436,-0.567695 6.05976,-0.431357 11.03441,0.421949 12.30988,0.814228 3.13978,0.965663 -4.82721,0.07972 -8.967,-0.160721 -9.19954,-0.534306 z m 250.0821,0.01051 c 2.6318,-0.183525 6.70727,-0.181596 9.05661,0.0043 2.34934,0.185883 0.19606,0.336039 -4.78508,0.333681 -4.98113,-0.0024 -6.90332,-0.154444 -4.27153,-0.337968 z"
         id="path2263" />
      <path
         style="fill:#9f47bc;stroke-width:0.90566"
         d="m 206.63356,193.81132 c 0,-1.24529 0.20557,-1.75472 0.45681,-1.13208 0.25123,0.62264 0.25123,1.64151 0,2.26415 -0.25124,0.62264 -0.45681,0.11321 -0.45681,-1.13207 z M 643.16186,192 c 0,-1.24529 0.20557,-1.75472 0.4568,-1.13208 0.25124,0.62264 0.25124,1.64151 0,2.26415 -0.25123,0.62264 -0.4568,0.11321 -0.4568,-1.13207 z M 171.3128,191.09434 c 0,-1.24529 0.20557,-1.75472 0.45681,-1.13208 0.25124,0.62264 0.25124,1.64151 0,2.26415 -0.25124,0.62264 -0.45681,0.11321 -0.45681,-1.13207 z m 477.21153,0.37736 c 0.0435,-1.05505 0.25806,-1.26965 0.54716,-0.54718 0.26162,0.65377 0.22945,1.43491 -0.0715,1.73586 -0.30095,0.30094 -0.515,-0.23397 -0.47568,-1.18868 z m -189.47005,-8.30189 c -1.12652,-1.43643 -1.09449,-1.46847 0.34194,-0.34194 0.8717,0.68363 1.58491,1.39684 1.58491,1.5849 0,0.7454 -0.74372,0.26564 -1.92685,-1.24296 z m -208.11486,-8.90566 c 0.0435,-1.05505 0.25806,-1.26964 0.54717,-0.54717 0.26162,0.65377 0.22945,1.4349 -0.0715,1.73585 -0.30094,0.30094 -0.51499,-0.23397 -0.47567,-1.18868 z m 195.55114,-7.96459 c 0,-0.18806 0.71321,-0.90126 1.58491,-1.5849 1.43643,-1.12652 1.46846,-1.09449 0.34194,0.34194 -1.18313,1.5086 -1.92685,1.98836 -1.92685,1.24296 z M 94.188679,114.67692 c 0,-0.18806 0.713207,-0.90126 1.584905,-1.5849 1.436432,-1.12652 1.468465,-1.09449 0.341941,0.34194 -1.183127,1.5086 -1.926846,1.98836 -1.926846,1.24296 z M 671.45424,94.188677 c 0,-7.222641 0.14064,-10.177358 0.31256,-6.566037 0.1719,3.61132 0.1719,9.520754 0,13.13207 -0.17192,3.61133 -0.31256,0.65661 -0.31256,-6.566033 z m -354.12736,1.358491 c 0.002,-5.977359 0.14836,-8.304784 0.32572,-5.172056 0.17735,3.132726 0.17589,8.023292 -0.004,10.867928 -0.17915,2.84462 -0.32425,0.28149 -0.32247,-5.695872 z m 365.90325,-2.716981 c 9.1e-4,-7.471698 0.14155,-10.407788 0.31172,-6.524644 0.17017,3.883144 0.16914,9.996348 -0.003,13.584909 -0.17144,3.588548 -0.31068,0.411428 -0.30941,-7.060265 z M 84.226415,104.71466 c 0,-0.18806 0.713207,-0.90127 1.584905,-1.58491 1.436428,-1.12652 1.468461,-1.09449 0.341937,0.34195 -1.183127,1.5086 -1.926842,1.98836 -1.926842,1.24296 z M 384.90566,103.809 c 0,-0.18806 0.71321,-0.90127 1.5849,-1.58491 1.43644,-1.12652 1.46847,-1.09449 0.34194,0.34195 -1.18312,1.5086 -1.92684,1.98835 -1.92684,1.24296 z M 127.69811,86.601458 c 0,-0.188066 0.71321,-0.901274 1.58491,-1.584906 1.43643,-1.126524 1.46846,-1.094491 0.34194,0.341937 -1.18313,1.508602 -1.92685,1.988358 -1.92685,1.242969 z M 54.339622,85.695797 c 0,-0.188065 0.713208,-0.901273 1.584906,-1.584905 1.436428,-1.126525 1.468461,-1.094492 0.341937,0.341936 -1.183127,1.508602 -1.926843,1.988359 -1.926843,1.242969 z M 344.22244,78.26415 c 0.0435,-1.055043 0.25806,-1.269646 0.54717,-0.54717 0.26162,0.653773 0.22945,1.434905 -0.0715,1.735849 -0.30094,0.300943 -0.51499,-0.233963 -0.47567,-1.188679 z M 93.735848,61.584904 c 0.901576,-0.996226 1.843001,-1.81132 2.092058,-1.81132 0.249056,0 -0.284821,0.815094 -1.186397,1.81132 -0.901576,0.996227 -1.843001,1.811321 -2.092057,1.811321 -0.249057,0 0.284821,-0.815094 1.186396,-1.811321 z m -5.886792,-3.169811 c 1.169882,-1.245283 2.330833,-2.264151 2.57989,-2.264151 0.249058,0 -0.504347,1.018868 -1.67423,2.264151 -1.169882,1.245283 -2.330832,2.264151 -2.579889,2.264151 -0.249057,0 0.504347,-1.018868 1.674229,-2.264151 z"
         id="path2261" />
      <path
         style="fill:#912cb3;stroke-width:0.90566"
         d="m 332.37736,198.90334 c 0,-0.18806 0.7132,-0.90127 1.5849,-1.58491 1.43643,-1.12652 1.46847,-1.09449 0.34194,0.34194 -1.18312,1.50861 -1.92684,1.98836 -1.92684,1.24297 z m 122.14862,-12.11089 c -1.12652,-1.43643 -1.09449,-1.46847 0.34194,-0.34194 0.8717,0.68364 1.58491,1.39684 1.58491,1.5849 0,0.7454 -0.74372,0.26564 -1.92685,-1.24296 z m -1.81132,-9.0566 c -1.12652,-1.43644 -1.09449,-1.46847 0.34194,-0.34195 0.8717,0.68364 1.58491,1.39685 1.58491,1.58491 0,0.74539 -0.74372,0.26564 -1.92685,-1.24296 z m 55.36081,-0.56836 c 0,-0.18806 0.71321,-0.90127 1.5849,-1.58491 1.43644,-1.12652 1.46847,-1.09449 0.34195,0.34194 -1.18313,1.50861 -1.92685,1.98836 -1.92685,1.24297 z M 305.59704,86.037734 c 0,-11.70566 0.12907,-16.494339 0.28683,-10.641509 0.15774,5.85283 0.15774,15.430188 0,21.283018 -0.15776,5.852827 -0.28683,1.064151 -0.28683,-10.641509 z m 350.45583,9.056604 c 0,-6.724529 0.14257,-9.475472 0.31683,-6.113208 0.17426,3.362264 0.17426,8.864151 0,12.22642 -0.17426,3.36226 -0.31683,0.61132 -0.31683,-6.113212 z m -107.15118,4.000003 c 0.0435,-1.055049 0.25806,-1.269646 0.54716,-0.547173 0.26162,0.653769 0.22945,1.434901 -0.0715,1.735852 -0.30094,0.30094 -0.51499,-0.23397 -0.47567,-1.188679 z m -265.96887,-24.150946 -1.72527,-2.037736 2.03773,1.725272 c 1.91497,1.621329 2.45003,2.350199 1.72528,2.350199 -0.17186,0 -1.08884,-0.916981 -2.03774,-2.037735 z m 102.76297,-5.886793 c -1.12652,-1.436428 -1.09449,-1.468461 0.34194,-0.341936 1.50861,1.183126 1.98836,1.926842 1.24297,1.926842 -0.18806,0 -0.90127,-0.713208 -1.58491,-1.584906 z"
         id="path2259" />
      <path
         style="fill:#800ba7;stroke-width:0.90566"
         d="M 0,126.33962 V 0 H 365.43396 730.86792 V 126.33962 252.67924 H 365.43396 0 Z m 148.81052,85.61321 c 1.68423,-1.47878 7.30219,-9.71531 12.48435,-18.30342 13.33533,-22.0999 12.31725,-19.76262 8.60826,-19.76262 -3.04386,0 -3.30334,0.29364 -8.84376,10.00833 -6.47125,11.34681 -6.21742,11.41267 -8.03079,-2.0838 l -1.06473,-7.92453 h -3.09352 c -2.74784,0 -3.03939,0.2277 -2.60913,2.03773 0.26641,1.12076 1.42577,7.21651 2.57636,13.54614 l 2.09197,11.5084 -2.53185,4.06779 c -2.84606,4.5726 -5.20887,6.24419 -7.13956,5.05097 -0.80902,-0.5 -1.54137,-0.39262 -1.97506,0.28961 -3.12479,4.91542 4.31902,6.13847 9.52746,1.5654 z m 254.56228,-0.25472 c 1.67437,-1.61887 7.79019,-10.81379 13.5907,-20.43317 l 10.54637,-17.48976 -3.39288,0.28222 c -3.29507,0.27409 -3.55652,0.56941 -9.06927,10.24448 -3.12201,5.47925 -5.72616,9.75849 -5.78699,9.50944 -0.0609,-0.24906 -0.78184,-4.73208 -1.60222,-9.96227 l -1.49162,-9.50943 -3.05908,-0.29324 c -2.92,-0.2799 -3.03595,-0.17697 -2.55038,2.26416 0.27976,1.40656 1.40594,7.56326 2.5026,13.68157 l 1.99393,11.1242 -2.64683,4.27203 c -2.31184,3.73135 -3.0424,4.27731 -5.77226,4.31378 -2.70965,0.0362 -3.16357,0.36753 -3.41201,2.49057 -0.2701,2.3081 -0.0742,2.44881 3.40952,2.44881 2.94172,0 4.31746,-0.60076 6.74042,-2.94339 z m 127.78364,0 c 0.26068,-1.12076 0.79433,-3.66793 1.18589,-5.66038 l 0.71193,-3.62264 5.85022,-0.46045 c 7.03601,-0.55377 10.00943,-2.34503 13.35498,-8.04539 1.99792,-3.40419 2.45013,-5.28624 2.45344,-10.2112 0.004,-5.14611 -0.32018,-6.3833 -2.19152,-8.37736 -2.83326,-3.01902 -8.64216,-3.23973 -12.17283,-0.46251 -1.97813,1.556 -2.38629,1.63345 -2.38629,0.45283 0,-0.95091 -0.82767,-1.42285 -2.49057,-1.42012 l -2.49056,0.005 -3.53237,17.42985 c -5.03302,24.83417 -4.86337,22.41057 -1.56881,22.41057 2.1621,0 2.91083,-0.46564 3.27649,-2.03773 z m 5.16442,-14.00505 c -1.8215,-0.34781 -2.01975,-0.77405 -1.52226,-3.2729 1.71399,-8.60934 3.27644,-12.29381 6.36234,-15.00326 3.40981,-2.99385 3.88805,-3.17414 5.57485,-2.10159 5.08415,3.23279 1.78616,17.0149 -4.72233,19.73432 -1.69805,0.7095 -3.20234,1.23449 -3.34286,1.16666 -0.14054,-0.0678 -1.19791,-0.30329 -2.34974,-0.52323 z m 54.93901,8.11826 c 0.50567,-2.36604 2.03528,-9.70189 3.39913,-16.30189 l 2.47973,-12 h 3.46837 c 2.86459,0 3.46837,-0.31531 3.46837,-1.81132 0,-1.42563 -0.60378,-1.81132 -2.83548,-1.81132 -2.76945,0 -2.82282,-0.0791 -2.2917,-3.39623 0.65871,-4.114 3.26528,-6.49765 6.44136,-5.8905 1.99844,0.38202 2.30846,0.12304 2.30846,-1.92844 0,-2.22763 -0.26139,-2.36974 -4.35886,-2.36974 -3.58606,0 -4.77229,0.44157 -6.6907,2.49057 -2.25162,2.40487 -2.64616,3.28919 -3.81187,8.54383 -0.40105,1.80781 -1.17484,2.50399 -3.01983,2.71698 -3.37173,0.38922 -4.03832,3.45617 -0.75118,3.45617 1.2818,0 2.33055,0.10868 2.33055,0.24152 0,0.13283 -1.56453,7.46868 -3.47674,16.30189 l -3.47674,16.06036 h 2.94886 c 2.78513,0 2.99992,-0.23886 3.86827,-4.30188 z m -400.97871,-5.8941 c 8.08524,-5.37307 9.81423,-22.18261 2.67466,-26.00359 -2.56527,-1.37289 -9.71231,-1.13421 -12.72757,0.42504 -8.74149,4.5204 -11.71552,20.35463 -4.839,25.76371 3.36954,2.65049 10.76324,2.55855 14.89191,-0.18516 z m -9.62887,-2.71106 c -2.6173,-1.43144 -3.1136,-2.51429 -3.12899,-6.82715 -0.0365,-10.23573 9.63397,-17.50907 13.55028,-10.19138 3.79746,7.09561 -4.32161,20.35449 -10.42129,17.01853 z m 34.01411,3.22369 c 1.23159,-0.84283 2.58028,-1.96358 2.99707,-2.49057 0.44036,-0.55678 0.57072,-0.10454 0.3112,1.07958 -0.3949,1.80181 -0.0894,2.03774 2.63842,2.03774 2.58699,0 3.08966,-0.32896 3.11377,-2.03774 0.0159,-1.12075 1.17426,-7.23396 2.57433,-13.5849 l 2.54558,-11.54717 h -2.96295 c -2.88282,0 -2.99105,0.14083 -4.00205,5.20755 -0.5715,2.86415 -1.41687,6.68264 -1.8786,8.48554 -2.34005,9.13717 -12.64181,14.01498 -12.58735,5.96002 0.0108,-1.59412 0.82588,-6.54567 1.81132,-11.00346 0.98545,-4.45778 1.79173,-8.2276 1.79173,-8.37736 0,-0.14976 -1.34247,-0.27229 -2.98328,-0.27229 h -2.98328 l -1.99785,10.2512 c -2.4405,12.52245 -2.44025,12.4893 -0.1208,15.43798 1.49612,1.90202 2.64989,2.38629 5.68527,2.38629 2.09453,0 4.81589,-0.68959 6.04747,-1.53241 z m 116.57832,-0.41849 c 6.14789,-3.79961 9.29582,-15.2155 6.07012,-22.01315 -1.70162,-3.58591 -4.57726,-5.01708 -10.08075,-5.01708 -8.70223,0 -14.27772,6.82084 -14.30984,17.50613 -0.0176,5.85106 0.14127,6.32833 2.9391,8.83019 2.45198,2.1926 3.74991,2.64481 7.5912,2.64481 3.16334,0 5.63511,-0.61901 7.79017,-1.9509 z m -9.42926,-2.64143 c -5.03982,-1.86435 -4.17002,-13.36592 1.3914,-18.39894 2.12038,-1.91892 5.82077,-2.20849 7.751,-0.60653 3.28726,2.72818 2.35321,11.31059 -1.7634,16.2029 -2.53385,3.0113 -4.64608,3.81354 -7.379,2.80257 z m 69.42982,2.78101 c 0.99623,-0.99623 1.81132,-2.64075 1.81132,-3.6545 0,-1.60258 -0.25293,-1.70783 -1.93756,-0.80624 -6.22902,3.33367 -10.87728,2.53882 -12.50792,-2.13886 -0.52291,-1.50001 -0.95074,-2.87026 -0.95074,-3.04498 0,-0.17473 2.13962,-0.32663 4.75471,-0.33757 5.43948,-0.0227 11.83223,-2.56223 13.28542,-5.27754 1.86697,-3.48846 1.19531,-7.98509 -1.51183,-10.12154 -2.08367,-1.6444 -3.3622,-1.90313 -7.82562,-1.58362 -4.85789,0.34774 -5.64207,0.71104 -8.76784,4.06203 -6.2785,6.73088 -7.15608,17.42722 -1.82092,22.19419 2.41884,2.16124 3.59181,2.51995 8.23999,2.51995 4.21213,0 5.82325,-0.40358 7.23099,-1.81132 z m -12.67924,-14.13965 c 0,-1.15601 2.73319,-5.51882 4.40556,-7.0323 2.05004,-1.85525 6.04555,-2.24864 7.55076,-0.74342 1.59745,1.59745 0.036,5.31027 -2.66179,6.32926 -2.9079,1.09835 -9.29453,2.09227 -9.29453,1.44646 z m 81.6037,12.51809 c 2.15941,-2.4168 2.62271,-3.7432 2.62271,-7.50875 0,-4.45912 -0.14997,-4.71621 -6,-10.28547 -4.42091,-4.20874 -6,-6.33755 -6,-8.08874 0,-5.11322 4.63082,-7.57604 10.43987,-5.55227 4.97088,1.73177 4.89779,1.74487 5.41694,-0.97088 0.55908,-2.92467 -1.8612,-4.01007 -8.94188,-4.01007 -8.24598,0 -13.02814,3.99457 -13.02814,10.88249 0,4.00416 1.30569,6.09759 7.35386,11.79047 5.70326,5.36825 6.41711,7.47628 3.67742,10.85964 -2.08261,2.57192 -7.7612,2.75227 -11.78669,0.37436 -3.16724,-1.87093 -3.38888,-1.79003 -4.22522,1.54222 -0.5118,2.03914 -0.22425,2.53233 1.96411,3.3688 1.41003,0.53897 5.56083,0.8795 9.224,0.75674 6.24228,-0.2092 6.82491,-0.40744 9.28302,-3.15854 z m 174.92835,2.3008 c 0.81511,-0.62264 1.76188,-2.29111 2.10394,-3.70771 l 0.62194,-2.57563 -2.97233,1.53705 c -3.72785,1.92774 -8.66936,2.11765 -10.35339,0.39788 -0.7066,-0.72158 -1.5595,-2.43272 -1.89533,-3.80253 -0.59549,-2.42893 -0.51292,-2.49069 3.33663,-2.49562 9.30975,-0.0119 15.26799,-3.72093 15.26799,-9.50438 0,-5.10947 -3.183,-7.69811 -9.46565,-7.69811 -4.48177,0 -5.40252,0.34585 -8.59203,3.22739 -7.16877,6.47656 -8.60685,18.0876 -2.87457,23.20939 2.42662,2.16818 3.62329,2.54435 8.0942,2.54435 2.88562,0 5.91348,-0.50943 6.7286,-1.13208 z m -11.4942,-16.38335 c 1.56365,-5.27486 9.21554,-9.25941 11.3659,-5.91853 2.02046,3.13908 -1.82852,6.67986 -8.06157,7.41604 -3.64319,0.4303 -3.84824,0.33737 -3.30433,-1.49751 z m 34.5767,15.499 c 1.65468,-1.5545 2.00893,-1.65823 1.54638,-0.45283 -0.49535,1.29085 -0.0697,1.5615 2.44028,1.55155 l 3.04029,-0.012 3.55067,-17.87474 c 1.95287,-9.8311 3.73245,-18.79172 3.95464,-19.91247 0.34807,-1.75581 0.0221,-2.03774 -2.356,-2.03774 -2.6481,0 -2.81076,0.22942 -4.01319,5.66038 l -1.25324,5.66038 -5.4187,0.45283 c -2.98029,0.24905 -6.49283,1.15765 -7.80567,2.0191 -7.97645,5.23397 -11.09945,18.17481 -5.9622,24.70576 2.42515,3.08307 9.11122,3.2137 12.27674,0.23984 z m -6.87076,-3.05913 c -1.50375,-1.05326 -1.95134,-2.2965 -1.95134,-5.41997 0,-7.15199 4.15411,-13.58899 9.0566,-14.03365 5.07598,-0.46039 5.61903,-0.13223 4.9972,3.01975 -2.56432,12.99808 -7.47928,19.67207 -12.10246,16.43387 z m -413.51455,-2.84897 c 2.55611,-11.63889 6.63156,-17.61572 10.57325,-15.50619 2.10155,1.12471 2.12302,1.10553 2.91839,-2.60702 0.62369,-2.91122 0.59331,-2.94339 -2.77923,-2.94339 -2.27897,0 -4.12166,0.66874 -5.55621,2.01642 -1.65468,1.55451 -2.00893,1.65824 -1.54638,0.45283 0.49492,-1.28973 0.0675,-1.56346 -2.44028,-1.56288 l -3.04029,7e-4 -2.26187,11.54646 c -3.29563,16.82359 -3.28607,15.62194 -0.12421,15.62194 2.65052,0 2.75216,-0.16758 4.25683,-7.01887 z m 34.73355,-1.22738 c 2.05197,-8.91215 4.18545,-12.7587 8.23932,-14.85504 2.30313,-1.19099 2.74333,-1.18238 4.00407,0.0783 1.78259,1.7826 1.79146,1.62647 -0.75472,13.28708 l -2.12588,9.73585 h 2.92318 2.92318 l 1.60032,-7.4717 c 1.80707,-8.43699 2.99503,-11.16809 6.04735,-13.90278 2.69665,-2.41603 4.68225,-3.11025 6.20473,-2.1693 1.90247,1.17579 1.46878,5.25561 -2.28612,21.50605 -0.41685,1.80404 -0.11992,2.03773 2.58922,2.03773 h 3.06005 l 2.01282,-10.10248 c 2.94701,-14.79125 1.85685,-17.97297 -6.15808,-17.97297 -2.53026,0 -4.41727,0.67701 -6.29801,2.25955 l -2.68533,2.25955 -1.48051,-2.25955 c -2.47506,-3.77742 -10.93068,-2.74221 -14.40375,1.76343 -0.40622,0.52698 -0.47158,0.0126 -0.14525,-1.14302 0.54319,-1.92363 0.34452,-2.07668 -2.3512,-1.81132 l -2.94451,0.28985 -2.0908,9.96226 c -3.73755,17.80881 -3.70419,16.75472 -0.53033,16.75472 2.72454,0 2.77027,-0.0811 4.65025,-8.24625 z m 75.15455,4.85002 c 0.4869,-1.86792 1.15947,-5.02641 1.49461,-7.01886 0.87238,-5.18648 4.38506,-10.82807 7.75961,-12.46241 6.08158,-2.9454 6.84221,-0.58927 4.09628,12.68882 l -2.10704,10.18868 h 3.02715 c 1.66493,0 3.02714,-0.15891 3.02714,-0.35314 0,-0.19422 0.81509,-4.31455 1.81132,-9.15629 0.99623,-4.84175 1.81132,-10.18472 1.81132,-11.87328 0,-4.36705 -2.63262,-6.69276 -7.57597,-6.69276 -2.62814,0 -4.75325,0.62921 -6.33963,1.87705 -1.97812,1.556 -2.38629,1.63345 -2.38629,0.45283 0,-0.97667 -0.84836,-1.42422 -2.69972,-1.42422 -2.06703,0 -2.80169,0.47755 -3.13481,2.03773 -3.88072,18.17575 -5.03339,23.75986 -5.03339,24.38428 0,0.41129 1.20694,0.7478 2.68208,0.7478 2.33812,0 2.79559,-0.43552 3.56734,-3.39623 z m 130.35858,0.77818 c 0.22284,-1.57624 -0.0458,-2.03014 -0.9878,-1.66869 -0.71164,0.27308 -1.81521,0.17433 -2.45237,-0.21946 -0.92319,-0.57057 -0.75807,-2.62289 0.81298,-10.10489 1.08431,-5.1639 2.17948,-10.10212 2.43371,-10.97382 0.3754,-1.28708 -0.11059,-1.5849 -2.58628,-1.5849 h -3.04854 l -2.00059,9.73585 c -3.17789,15.46518 -2.66566,17.73296 3.89606,17.24875 3.04183,-0.22446 3.67608,-0.61681 3.93283,-2.43284 z m 10.35529,-5.20957 c 1.59268,-8.26165 3.95389,-12.7889 7.87961,-15.10788 2.88997,-1.70714 5.45899,-0.52902 5.45899,2.50345 0,1.1657 -0.8151,6.08087 -1.81132,10.92262 -0.99623,4.84174 -1.81133,8.98789 -1.81133,9.21368 0,0.22578 1.29537,0.28281 2.87858,0.12672 2.83024,-0.27904 2.90573,-0.4104 4.49453,-7.82036 1.82138,-8.49472 4.30342,-13.18142 7.99054,-15.0881 2.11511,-1.09377 2.77238,-1.1055 4.18215,-0.0746 1.76918,1.29365 1.74829,1.50239 -2.06851,20.66158 -0.45598,2.28889 -0.26838,2.49057 2.31678,2.49057 2.17383,0 2.91991,-0.46298 3.28378,-2.03774 3.94924,-17.0915 4.27103,-21.5267 1.76292,-24.29812 -2.93252,-3.2404 -12.37831,-1.60575 -14.80595,2.56225 -0.66599,1.14345 -0.9308,1.22639 -0.95067,0.29775 -0.0971,-4.54046 -8.49653,-6.29447 -13.03748,-2.72256 -1.97813,1.556 -2.38629,1.63345 -2.38629,0.45283 0,-0.9592 -0.83561,-1.42426 -2.55902,-1.42426 -2.55472,0 -2.5632,0.0202 -5.03917,12 -1.36409,6.6 -2.68527,12.71321 -2.93597,13.5849 -0.36988,1.2861 0.11966,1.58491 2.5965,1.58491 h 3.05233 z m 80.21075,5.20957 c 0.22283,-1.57624 -0.0458,-2.03014 -0.9878,-1.66869 -0.71164,0.27308 -1.81247,0.17602 -2.44629,-0.21571 -0.90425,-0.55885 -0.44848,-3.96557 2.11666,-15.82122 1.79797,-8.30995 3.52589,-16.13236 3.83982,-17.38313 0.53406,-2.12787 0.37424,-2.25533 -2.48467,-1.98178 l -3.05544,0.29235 -3.36899,15.39623 c -4.81957,22.02528 -4.58168,24.33396 2.45388,23.81479 3.04183,-0.22446 3.67608,-0.61681 3.93283,-2.43284 z m 14.48493,0.0429 c 0.25326,-1.78875 0.004,-2.02802 -1.58936,-1.52246 -3.01029,0.95543 -3.13504,-1.28545 -0.70226,-12.61474 l 2.24558,-10.45749 h -2.92313 -2.92313 l -2.42815,11.45453 c -2.24671,10.59862 -2.32141,11.61741 -0.99985,13.63437 1.19525,1.82419 2.0476,2.13483 5.22405,1.90396 3.19419,-0.23216 3.84339,-0.61223 4.09625,-2.39815 z m 30.26785,0.27411 c 0.33564,-1.75582 0.0924,-2.24398 -1.0265,-2.06034 -3.42969,0.56287 -3.59576,-0.79614 -1.3755,-11.25571 1.19016,-5.60686 2.16604,-10.49994 2.16861,-10.87352 0.003,-0.37359 -1.1905,-0.67925 -2.65127,-0.67925 -3.02064,0 -2.85369,-0.35869 -5.46039,11.73118 -2.95523,13.70635 -2.49334,15.43865 4.11642,15.43865 3.33834,0 3.84106,-0.27356 4.22863,-2.30099 z M 480.45283,163.92452 c 0,-1.89344 -0.48294,-2.31069 -2.94963,-2.54841 -2.03145,-0.19577 -3.1188,0.15662 -3.49311,1.13208 -1.03093,2.68652 0.36117,4.26657 3.49311,3.96475 2.46669,-0.23772 2.94963,-0.65497 2.94963,-2.54842 z m 104.93128,1.3585 c 0.9127,-2.37847 -0.4072,-4.07548 -3.16981,-4.07548 -2.76261,0 -4.08251,1.69701 -3.16981,4.07548 0.29893,0.77901 1.65104,1.35849 3.16981,1.35849 1.51877,0 2.87087,-0.57948 3.16981,-1.35849 z m 30.01211,-1.3585 c 0,-1.87291 -0.48863,-2.31169 -2.82779,-2.53932 -1.98885,-0.19354 -3.00106,0.17638 -3.41185,1.24687 -0.83697,2.1811 1.16405,4.14661 3.89797,3.82881 1.82143,-0.21172 2.34167,-0.77524 2.34167,-2.53636 z M 86.407265,129.51428 c 5.344282,-12.30072 9.726754,-17.50776 17.854725,-21.21416 22.07689,-10.067162 22.7277,-10.456288 30.22858,-18.074031 5.73329,-5.82262 8.25865,-9.312077 12.10122,-16.721087 2.67078,-5.149606 4.50474,-9.666826 4.07547,-10.038265 C 149.37134,62.345378 99.161533,31.810561 97.756836,31.289559 96.835942,30.947998 95.122424,33.353655 91.924528,39.477717 86.436741,49.986973 81.524743,55.182092 73.519637,58.943442 53.957819,68.13493 52.249715,69.125135 46.352897,74.692283 40.123545,80.573374 34.174622,89.557753 29.208587,100.58453 l -2.67651,5.94303 26.809433,16.40591 c 14.745188,9.02325 27.243712,16.43569 27.774497,16.47207 0.530785,0.0364 2.911851,-4.41468 5.291258,-9.89126 z M 56.857779,115.8023 36.281596,103.08432 39.073798,97.552997 c 3.652773,-7.236107 8.756277,-14.074119 13.616821,-18.244723 3.584829,-3.075973 7.248427,-5.042782 24.290513,-13.040404 8.250708,-3.871946 12.885657,-8.184253 18.273962,-17.001899 4.408247,-7.213836 4.760106,-7.556914 6.550736,-6.387375 1.04075,0.679757 9.43191,5.813195 18.647,11.407641 9.21509,5.594446 17.6796,10.762498 18.81001,11.484561 l 2.05531,1.31284 -2.96097,5.54324 c -3.52658,6.602138 -13.11962,16.719517 -18.81001,19.838128 -2.24151,1.228447 -7.73333,3.801872 -12.20405,5.718702 -15.590496,6.684472 -21.160789,11.921882 -26.798512,25.197052 -1.212743,2.85566 -2.408759,5.18026 -2.657816,5.16581 -0.249057,-0.0145 -9.712113,-5.74939 -21.029013,-12.74427 z m 19.492716,1.14481 c 1.991711,-4.7369 7.087855,-11.39571 11.023179,-14.40333 2.134228,-1.6311 8.769519,-5.142861 14.745106,-7.803927 5.97557,-2.661056 12.6962,-6.098399 14.93471,-7.63854 5.02169,-3.45501 11.59736,-10.672406 14.57123,-15.993238 l 2.2352,-3.999199 -15.4397,-9.12017 c -8.49183,-5.016093 -15.50662,-9.00993 -15.58841,-8.875193 -6.860457,11.30197 -11.659632,16.010862 -20.254051,19.87304 -16.897878,7.593603 -21.212902,10.067125 -26.305361,15.079156 -5.841079,5.748825 -13.235959,17.295251 -11.919696,18.611511 1.405865,1.40587 28.47676,16.68681 29.728753,16.78126 0.646688,0.0488 1.667756,-1.08134 2.26904,-2.51137 z m 8.32875,-25.448253 C 75.656478,89.435283 73.402842,80.926059 80.732382,76.596394 c 5.042063,-2.978421 14.413073,-1.654543 17.882929,2.526389 1.516779,1.827606 1.560909,6.515169 0.07816,8.301784 -2.697718,3.250538 -9.266266,5.160186 -14.014225,4.07429 z M 411.85887,120.39263 c 1.52387,-0.53123 3.78673,-2.46707 5.02857,-4.30189 1.24184,-1.83481 6.02028,-13.72848 10.61874,-26.430365 4.59848,-12.701886 8.55324,-23.603773 8.78839,-24.226414 0.31633,-0.837644 -1.19908,-1.132076 -5.82667,-1.132076 h -6.25419 l -3.92712,12.905661 c -2.15991,7.098113 -4.1859,13.400621 -4.50222,14.005566 -0.3163,0.604945 -2.56849,-5.202599 -5.00487,-12.905661 l -4.4298,-14.005566 h -6.19372 c -4.00075,0 -6.19372,0.362381 -6.19372,1.023494 0,0.56292 3.26038,9.858694 7.24528,20.657275 3.98491,10.798585 7.24529,20.293796 7.24529,21.100496 0,2.63979 -2.66027,4.31307 -6.85715,4.31307 h -4.01078 v 4.98114 4.98113 h 5.75165 c 3.1634,0 6.99845,-0.43464 8.52232,-0.96586 z M 287.77488,105.45199 c 8.176,-4.07427 11.98423,-12.329067 10.83314,-23.482118 -1.1351,-10.998063 -8.18016,-17.541723 -19.77935,-18.37164 -13.67561,-0.978486 -22.68661,7.934362 -22.68661,22.439502 0,13.641917 7.77915,21.671526 21.03861,21.715956 4.58243,0.0154 6.99735,-0.50931 10.59421,-2.3017 z m -16.15235,-9.255708 c -2.86425,-2.559197 -3.06749,-3.129347 -3.34545,-9.385033 -0.2438,-5.486728 0.0316,-7.182926 1.56296,-9.626278 5.028,-8.022421 15.31366,-4.554169 16.84854,5.681213 1.31827,8.790765 -1.82735,14.688172 -8.29738,15.555985 -3.22594,0.432688 -4.1236,0.137488 -6.76867,-2.225887 z m 110.38292,9.635468 c 2.66642,-1.2908 4.8878,-3.32393 6.62557,-6.064105 3.69416,-5.825099 3.4815,-6.484628 -2.0909,-6.484628 -3.8397,0 -5.15973,0.435496 -7.17644,2.367641 -1.65758,1.588057 -3.82164,2.519846 -6.57235,2.829889 -3.66754,0.413389 -4.39286,0.170464 -6.86129,-2.297977 -1.64836,-1.648347 -2.76023,-3.700329 -2.76023,-5.094041 v -2.333814 h 14.59942 14.59941 l -0.38548,-5.32931 c -0.81629,-11.285098 -7.97064,-18.975662 -18.46197,-19.845685 -8.98454,-0.745068 -16.81576,4.000217 -20.58706,12.474616 -3.5982,8.085429 -1.78115,20.227857 3.915,26.161934 5.40657,5.63238 17.42257,7.35932 25.15632,3.61548 z M 363.16981,79.367418 c 0,-2.134714 3.47891,-5.770295 5.97895,-6.248207 1.31839,-0.252026 3.70406,-0.09735 5.3015,0.343722 2.57512,0.711024 3.45118,1.702161 5.71142,6.461594 0.17742,0.373585 -3.57317,0.679245 -8.33465,0.679245 -6.71144,0 -8.65722,-0.277881 -8.65722,-1.236354 z M 533.7333,105.63261 c 3.96415,-2.00691 4.22896,-2.03526 4.22896,-0.45283 0,1.48872 0.76032,1.68814 6.43652,1.68814 5.7784,0 6.36884,-0.16205 5.7746,-1.5849 -0.36405,-0.8717 -0.86972,-9.036999 -1.12372,-18.145114 -0.40533,-14.534533 -0.67464,-16.830774 -2.20172,-18.772143 -3.53094,-4.488862 -17.06029,-6.394479 -25.34859,-3.570369 -4.98488,1.698521 -8.41602,5.147917 -9.64385,9.69517 l -0.91705,3.396227 h 6.06807 c 5.88015,0 6.09913,-0.08228 7.07094,-2.656932 1.94705,-5.158308 12.17541,-4.415208 12.79852,0.929823 0.39198,3.362488 -1.10909,4.165204 -10.66549,5.703483 -9.38556,1.510781 -12.28872,3.059454 -14.73739,7.861589 -3.09076,6.061354 -1.35018,12.940006 4.11804,16.274166 4.24363,2.5875 12.64262,2.41792 18.14216,-0.36631 z m -10.30793,-7.867616 c -1.28452,-1.284525 -1.67366,-2.472045 -1.26129,-3.849056 0.97349,-3.250787 2.34893,-4.098981 8.77931,-5.413961 l 6.11321,-1.250118 -0.0288,3.694826 c -0.0159,2.032148 -0.52528,4.341464 -1.13208,5.131798 -2.94185,3.831649 -9.44563,4.711237 -12.47035,1.686511 z m 103.08192,8.606866 c 4.26981,-1.78404 7.1757,-4.50243 9.35443,-8.750875 0.94775,-1.848081 1.72318,-3.580157 1.72318,-3.849056 0,-0.2689 -2.22299,-0.488912 -4.93997,-0.488912 -4.03996,0 -5.34575,0.40579 -7.16728,2.227318 -2.71423,2.714237 -5.89263,3.599393 -10.09423,2.811169 -3.32943,-0.624606 -5.32227,-2.840594 -6.36367,-7.076223 l -0.61235,-2.490566 h 15.16469 15.16468 l -0.57465,-4.192543 C 636.67915,73.7428 632.45253,67.312005 625.2004,64.840955 610.30064,59.764099 596.81383,69.9249 596.83903,86.208066 c 0.0204,13.142033 7.97817,21.449224 20.62402,21.529424 3.16907,0.0201 7.17561,-0.58486 9.04424,-1.36563 z M 609.6791,77.78937 c 2.10779,-6.046392 11.80135,-6.556179 14.78948,-0.77778 0.73851,1.428114 1.34274,2.820584 1.34274,3.094377 0,0.273793 -3.8505,0.497805 -8.55666,0.497805 h -8.55667 z m -411.13108,10.048838 0.24443,-19.029714 6.45184,18.803299 6.45182,18.803297 5.32512,0.26384 5.32513,0.26385 6.48748,-19.282714 6.48748,-19.282709 0.0752,19.245283 0.0752,19.24528 h 6.33962 6.33963 V 77.855108 48.842294 l -9.26266,0.258098 -9.26263,0.258098 -5.885,18.769318 c -3.23675,10.323125 -6.14974,18.474068 -6.47331,18.113207 -0.32357,-0.360861 -3.32214,-8.908941 -6.66347,-18.995733 l -6.07517,-18.339623 h -8.98132 -8.98131 v 28.981132 28.981129 h 5.86878 5.86877 z m 119.50423,4.00432 c 0.27794,-14.532425 0.35751,-15.082122 2.42544,-16.754712 2.43723,-1.971298 7.201,-2.272294 9.4525,-0.597252 2.17229,1.616116 3.35283,9.233167 3.35283,21.633048 v 10.744308 h 5.88679 5.88679 l -0.0397,-15.169809 c -0.057,-21.815108 -2.1076,-26.636127 -11.89164,-27.957531 -5.95819,-0.804696 -10.13239,0.200461 -13.36233,3.217683 l -2.78183,2.598644 V 66.88618 64.215454 l -5.66038,0.269631 -5.66037,0.269631 -0.24311,21.056603 -0.24311,21.056601 h 6.29537 6.29536 z m 134.98634,-4.219888 0.24443,-19.245283 6.44119,19.018868 6.44119,19.018865 5.33239,0.25313 5.3324,0.25312 6.33962,-18.684877 6.33962,-18.684873 0.24479,18.658167 0.24479,18.658163 h 6.32125 6.32125 V 77.855108 48.842294 l -9.24681,0.258098 -9.2468,0.258098 -5.87994,18.790228 c -3.23398,10.334626 -6.15411,18.485569 -6.48918,18.113207 -0.33506,-0.372362 -3.34304,-8.929851 -6.68438,-19.016643 l -6.07517,-18.339623 h -8.98131 -8.98132 v 28.981132 28.981129 h 5.86878 5.86878 z m 134.4333,-1.116488 c 3.65273,-10.949919 6.64131,-20.42539 6.64131,-21.056604 0,-0.804607 -1.69198,-1.146036 -5.66037,-1.142221 l -5.66038,0.0054 -4.03514,13.574513 c -2.21932,7.465984 -4.30323,13.271085 -4.6309,12.900217 -0.32768,-0.370853 -2.34011,-6.481832 -4.47208,-13.579945 l -3.8763,-12.905661 h -6.27618 c -4.91817,0 -6.21282,0.274629 -5.98335,1.269226 0.16104,0.698074 3.34942,10.286531 7.08527,21.307681 l 6.79245,20.038452 6.71718,-0.25107 6.71717,-0.25108 z m 69.13188,5.993342 c 0,-13.164808 0.15724,-14.568327 1.87705,-16.754718 2.1791,-2.770272 7.31974,-3.248026 10.34936,-0.961834 1.6646,1.256124 1.8345,2.611025 2.09738,16.725913 l 0.28605,15.359065 h 6.37928 6.37929 l -0.36094,-16.528299 c -0.30249,-13.852364 -0.63736,-17.096752 -2.06833,-20.039417 -3.71828,-7.646322 -17.07929,-9.36542 -23.80707,-3.06314 l -2.03773,1.908862 v -2.42202 c 0,-2.377175 -0.109,-2.422021 -5.88679,-2.422021 h -5.8868 v 21.283019 21.283016 h 6.33963 6.33962 z"
         id="path2257" />
    </g>
  </g>
</svg>
